<?xml version="1.0" encoding="UTF-8" standalone="no"?>
<svg
   version="1.1"
   id="Layer_1"
   x="0px"
   y="0px"
   width="6500"
   viewBox="0 0 6500 1500"
   enable-background="new 0 0 7500 1659"
   xml:space="preserve"
   sodipodi:docname="logo-hospital-santa-fe.svg"
   inkscape:version="1.4.2 (f4327f4, 2025-05-13)"
   height="1500"
   xmlns:inkscape="http://www.inkscape.org/namespaces/inkscape"
   xmlns:sodipodi="http://sodipodi.sourceforge.net/DTD/sodipodi-0.dtd"
   xmlns:xlink="http://www.w3.org/1999/xlink"
   xmlns="http://www.w3.org/2000/svg"
   xmlns:svg="http://www.w3.org/2000/svg"><defs
   id="defs30"><color-profile
     name="Agfa-:-Swop-Standard"
     xlink:href="../../../WINDOWS/system32/spool/drivers/color/RSWOP.icm"
     id="color-profile2" /></defs><sodipodi:namedview
   id="namedview30"
   pagecolor="#ffffff"
   bordercolor="#000000"
   borderopacity="0.25"
   inkscape:showpageshadow="2"
   inkscape:pageopacity="0.0"
   inkscape:pagecheckerboard="0"
   inkscape:zoom="0.17"
   inkscape:cx="3750"
   inkscape:cy="826.47059"
   inkscape:window-width="2560"
   inkscape:window-height="1494"
   inkscape:window-x="3829"
   inkscape:window-y="-11"
   inkscape:window-maximized="1"
   inkscape:current-layer="Layer_1"
   inkscape:deskcolor="#d1d1d1" />






























<path
   fill="#4CC1B7"
   opacity="1"
   stroke="none"
   d="m 1428.0913,838.97226 c 2.6088,12.5957 5.7298,25.1111 7.721,37.8037 4.2554,27.1253 3.6964,54.5697 1.6377,81.7201 -6.2438,82.34674 -31.2053,158.81564 -74.9985,229.02424 -25.7319,41.2526 -56.8451,77.9754 -92.9611,110.407 -29.8369,26.793 -62.6429,49.4385 -97.9626,68.5115 -39.4751,21.317 -81.0426,36.9931 -124.7161,47.0262 -28.2026,6.4789 -56.69043,11.4237 -85.73523,11.7115 -62.6089,0.6203 -125.22,1.0224 -187.8302,1.4781 -2.5877,0.019 -5.178,-0.3224 -8.3549,-0.535 0,-112.3136 0,-224.1271 0,-336.9964 3.9284,-0.1523 7.7982,-0.4301 11.6682,-0.433 52.9976,-0.039 105.9953,0.015 158.9925,-0.1214 6.9381,-0.019 13.8734,-0.9934 22.2656,-0.8913 5.0864,0.8683 8.7169,1.303 12.348,1.3064 47.32053,0.045 94.64153,0.1614 141.96103,-0.07 10.9146,-0.053 21.9701,-0.4658 32.7055,-2.2491 25.819,-4.289 51.3274,-9.785 75.9036,-19.429 41.9863,-16.476 79.5771,-39.8511 112.3085,-70.66306 13.0012,-12.2389 24.9865,-25.84008 35.7992,-40.06408 25.3357,-33.3301 44.4659,-70.0273 55.861,-110.5315 0.6914,-2.458 2.238,-4.6756 3.3868,-7.005 z"
   id="path2"
   style="fill:#e6e6e6;stroke-width:0.999999" /><path
   fill="#1AAE86"
   opacity="1"
   stroke="none"
   d="m 428.08297,579.21926 c 0.06,56.6524 0.1236,113.3049 0.1576,169.9574 6e-4,0.9444 -0.3511,1.889 -0.6559,3.4259 -111.5032,0 -222.9774,0 -335.172205,0 -0.2355,-2.4126 -0.6962,-4.9392 -0.6978,-7.4661 -0.041,-60.6553 -0.775,-121.3225 0.2022,-181.962 0.7918,-49.1416 10.696605,-96.9261 26.861305,-143.3532 23.6333,-67.878 60.0255,-127.9797 109.1967,-180.491 54.8862,-58.6144 119.9098,-101.831 195.0794,-129.7631 36.2653,-13.475799 73.6724,-22.445399 112.1511,-27.037999 27.7932,-3.317302 55.6489,-4.917802 83.5558,-3.158202 21.2087,1.3372 42.2435,4.550002 62.4979,10.900302 -4.2007,1.306 -8.2019,1.6347 -11.9817,2.7287 -22.4402,6.4947 -43.894,15.436699 -64.4268,26.571899 -21.0743,11.4289 -41.0955,24.6297 -58.7401,40.751 -15.1844,13.8738 -29.1227,29.2002 -42.8165,44.592 -14.389,16.1731 -25.8177,34.5686 -35.9754,53.6461 -12.3779,23.2474 -21.7719,47.739 -28.5572,73.1861 -6.1601,23.1019 -10.1086,46.7796 -10.4631,70.5339 -0.88,58.9674 -0.243,117.9574 -0.2151,176.9383 z"
   id="path3"
   style="fill:#999999;stroke-width:0.999999" /><path
   fill="#686868"
   opacity="1"
   stroke="none"
   d="m 3445.6237,725.40146 c -90.0151,-116.3881 -179.455,-232.3258 -269.1967,-348.0286 -0.7439,0.3002 -1.4876,0.6004 -2.2315,0.9007 0,146.3718 0,292.7436 0,439.6148 -36.9082,0 -72.7471,0 -109.2407,0 0,-208.2197 0,-415.9962 0,-624.4901 2.0654,-0.3284 4.2344,-0.9692 6.4048,-0.9741 29.6611,-0.067 59.3247,0.1534 88.9812,-0.2162 5.9126,-0.074 9.0852,2.5359 12.2634,6.6625 29.6348,38.4752 59.3401,76.8961 89.0391,115.3218 42.6963,55.2424 85.4082,110.4726 128.1067,165.7133 35.1896,45.5266 70.3681,91.0619 105.5588,136.588 0.9858,1.2754 2.0476,2.4923 2.9927,3.6381 0.653,-0.2179 1.0144,-0.2612 1.2714,-0.4479 0.2199,-0.16 0.4034,-0.4681 0.4568,-0.7397 0.1281,-0.649 0.2245,-1.3142 0.2366,-1.9746 0.038,-1.9991 0.034,-3.9989 0.034,-5.9984 0.011,-137.9743 0.023,-275.9485 0.044,-413.9228 0,-0.6627 0.091,-1.3306 0.2,-1.986 0.051,-0.3084 0.2479,-0.5927 0.3791,-0.8879 6.8235,-2.2226 89.9126,-3.0664 107.2461,-1.089 1.8936,6.9958 2.3697,612.7945 0.3681,624.8637 -3.0796,0.1431 -6.3228,0.4191 -9.5659,0.4243 -23.3291,0.038 -46.6673,-0.3541 -69.9822,0.2218 -8.2229,0.2031 -13.5498,-2.4412 -18.4041,-8.8676 -20.4423,-27.0631 -41.2565,-53.8454 -61.9484,-80.7201 -0.8106,-1.0529 -1.7571,-2.0014 -3.0135,-3.606 z"
   id="path4"
   style="fill:#ffffff;stroke-width:0.999999" /><path
   fill="#2EBDA8"
   opacity="1"
   stroke="none"
   d="m 1428.0618,838.18236 c -1.1193,3.1193 -2.6659,5.3368 -3.3573,7.7949 -11.3951,40.5042 -30.5253,77.2014 -55.861,110.5315 -10.8127,14.224 -22.798,27.82518 -35.7992,40.06408 -32.7314,30.81196 -70.3222,54.18706 -112.3085,70.66306 -24.5762,9.644 -50.0846,15.14 -75.9036,19.429 -10.7354,1.7833 -21.7909,2.1958 -32.7055,2.2491 -47.3195,0.2313 -94.6405,0.1153 -141.96103,0.07 -3.6311,0 -7.2616,-0.4381 -11.4877,-1.2434 24.9184,-5.2035 48.76953,-14.0991 69.98213,-29.177 36.814,-26.1672 60.6642,-61.23516 69.1239,-105.72364 10.2737,-54.0271 -3.4178,-101.9799 -39.7388,-143.2297 -27.7066,-31.4666 -62.63005,-49.6992 -104.23573,-54.9181 -7.2169,-0.9052 -14.536,-1.3749 -21.8093,-1.3911 -51.9451,-0.1158 -103.8905,-0.062 -155.8358,-0.062 -3.582,0 -7.1637,0 -11.7992,0 0,-56.139 0,-111.3064 1.0843,-167.3903 53.3161,-0.8973 105.5476,-0.8407 157.7789,-0.9422 3.5408,-0.01 7.0793,-1.204 10.6188,-1.8475 54.2445,0.057 108.49053,-0.1374 162.73303,0.2295 87.8232,0.5942 165.3822,28.5118 231.0102,87.7507 49.4388,44.6259 82.5452,99.2145 100.0072,163.392 0.26,0.9558 0.2948,1.9728 0.4642,3.7511 z"
   id="path5"
   style="fill:#cccccc;stroke-width:0.999999" /><path
   fill="#686969"
   opacity="1"
   stroke="none"
   d="m 5942.0187,192.08326 c 144.9083,6e-4 288.8218,6e-4 433.2037,6e-4 0,33.7559 0,66.2969 0,100.1272 -117.6309,0 -235.0552,0 -352.9805,0 0,53.7706 0,106.2533 0,159.7677 104.3769,0 208.2134,0 312.748,0 0,33.7617 0,66.497 0,100.1709 -104.1762,0 -208.0297,0 -312.5879,0 0,55.4014 0,109.8737 0,165.7496 29.5293,0.387 59.024,0.1267 88.5118,0.1727 29.9995,0.047 59.999,0.011 89.9985,0.011 29.6665,0 59.3325,0 88.999,0 29.5904,0 59.1812,0 89.2696,0 0,33.7004 0,66.2379 0,98.7505 -7.0596,1.9131 -451.7676,2.5609 -466.1753,0.6094 0,-207.9895 0,-416.0759 0,-625.3596 9.5078,0 18.7631,0 29.0131,6e-4 z"
   id="path6"
   style="fill:#ffffff;stroke-width:0.999999" /><path
   fill="#0DB899"
   opacity="1"
   stroke="none"
   d="m 933.77577,582.12086 c -3.4681,1.5817 -7.0066,2.7789 -10.5474,2.7857 -52.2313,0.1015 -104.4628,0.045 -157.5792,0.019 -1.4343,-18.006 -3.6705,-35.7409 -9.7595,-52.7898 -20.7716,-58.1605 -60.9133,-95.8265 -120.7734,-110.8749 -76.2192,-19.1609 -153.4742,19.9043 -187.6225,87.0147 -11.1851,21.9818 -17.4115,45.0807 -18.8823,70.3049 -0.5562,-58.3426 -1.1932,-117.3326 -0.3133,-176.2999 0.3545,-23.7544 4.303,-47.4321 10.4631,-70.5339 6.7853,-25.4471 16.1793,-49.9387 28.5572,-73.1862 10.1577,-19.0774 21.5864,-37.4729 35.9754,-53.646 13.6938,-15.3918 27.6321,-30.7182 42.8165,-44.592 17.6446,-16.1213 37.6658,-29.3221 58.7401,-40.751 20.5328,-11.1352 41.9866,-20.077199 64.4268,-26.571899 3.7798,-1.094 7.781,-1.4227 12.5641,-2.1925 11.9811,3.1787 23.331,5.772 34.1297,9.831499 39.2843,14.768 74.5263,36.2892 105.7156,64.4678 54.4834,49.224 89.6332,109.6465 104.8616,181.4426 2.944,13.8795 3.8798,28.1849 5.6826,43.6369 0.074,1.9782 0.4202,2.4601 0.9795,2.789 0.1553,3.6388 0.4442,7.2774 0.4464,10.9163 0.038,59.097 0.038,118.1941 0.1191,178.2293 z"
   id="path7"
   style="fill:#cccccc;stroke-width:0.999999" /><path
   fill="#686868"
   opacity="1"
   stroke="none"
   d="m 2387.3737,818.39006 c -34.4929,-2e-4 -68.0588,-2e-4 -103.5295,-2e-4 92.1177,-210.8441 183.6016,-420.2368 275.0947,-629.651 34.6914,0 68.6165,0 103.5498,0 91.3118,208.9917 182.7058,418.1721 274.1133,627.3825 -7.1536,2.7837 -93.9001,3.798 -116.707,1.5354 -20.94,-49.73 -42.065,-99.8997 -63.2268,-150.157 -98.2422,0 -195.8116,0 -294.5784,0 -21.2712,49.8414 -42.7559,100.1829 -64.3967,150.8906 -3.4912,0 -6.4422,0 -10.3194,-3e-4 m 304.3155,-305.9817 c -27.3384,-63.1225 -54.6766,-126.2451 -82.8533,-191.3038 -18.3721,43.0298 -35.7251,83.9287 -53.2888,124.7371 -17.5086,40.6811 -35.1365,81.3095 -52.4588,122.651 71.5691,0 141.6079,0 212.6612,0 -8.0784,-18.8096 -15.7808,-36.7437 -24.0603,-56.0843 z"
   id="path8"
   style="fill:#ffffff;stroke-width:0.999999" /><path
   fill="#686868"
   opacity="1"
   stroke="none"
   d="m 4517.0993,222.03696 c 5.0122,-11.3155 9.6929,-21.947 14.5781,-33.0422 34.3135,0 68.4981,0 103.7149,0 91.2427,208.8413 182.6445,418.0465 274.0493,627.2588 -6.3389,2.5918 -99.0742,3.5645 -116.8677,1.253 -20.873,-49.6272 -41.8711,-99.5514 -63.0381,-149.8772 -97.9721,0 -195.8276,0 -294.6333,0 -8.0664,18.7477 -16.3574,37.8914 -24.5449,57.0792 -12.2597,28.7323 -24.4565,57.4911 -36.6523,86.2505 -1.7115,4.0355 -3.0083,7.6135 -8.8955,7.5614 -34.6548,-0.3068 -69.3135,-0.1953 -103.9707,-0.2515 -0.6368,0 -1.2725,-0.3314 -3.2466,-0.8795 1.2588,-3.3135 2.3491,-6.5934 3.7261,-9.748 22.2177,-50.879 44.4941,-101.7322 66.7109,-152.6114 31.3931,-71.8948 62.7197,-143.8191 94.1279,-215.7074 28.75,-65.8045 57.5757,-131.5757 86.3555,-197.367 2.7959,-6.3922 5.5058,-12.8222 8.5864,-19.9187 m -25.0005,308.13 c -5.3432,12.6489 -10.6865,25.2977 -16.188,38.321 71.3726,0 141.4224,0 211.6519,0 -5.6509,-18.8442 -101.6875,-239.0667 -106.8618,-244.8816 -29.3809,68.5046 -58.6856,136.8317 -88.6021,206.5606 z"
   id="path9"
   style="fill:#ffffff;stroke-width:0.999999" /><path
   fill="#686868"
   opacity="1"
   stroke="none"
   d="m 2164.2453,532.77816 c 22.3257,25.4265 33.4756,54.4688 36.2922,87.4436 2.1216,24.8373 0.2646,49.0865 -6.3591,72.9169 -12.2622,44.1169 -38.8469,77.4612 -78.1145,100.6388 -32.3943,19.1206 -67.8677,28.6017 -105.1448,31.1864 -18.2277,1.264 -36.6074,2.0199 -54.8379,1.207 -35.6738,-1.591 -70.6044,-8.3067 -104.4501,-19.7496 -45.261,-15.3024 -86.0562,-38.6751 -122.4305,-69.695 -3.769,-3.2142 -7.4372,-6.5463 -11.9045,-10.4872 22.2908,-26.5302 44.3989,-52.8435 65.8662,-78.3938 19.8604,13.9636 38.4788,27.9098 57.9468,40.5469 31.3794,20.369 65.7756,33.357 103.0381,37.7818 29.8713,3.5471 59.7671,4.4122 88.9033,-5.1377 18.7151,-6.1342 35.105,-15.7879 46.7656,-32.3446 17.9368,-25.4682 17.9819,-73.0321 -17.5681,-95.0953 -17.3994,-10.7984 -36.0928,-18.6688 -55.5986,-24.2752 -29.9986,-8.6223 -60.3147,-16.1347 -90.4602,-24.252 -27.6502,-7.4455 -55.1018,-15.6619 -80.9226,-28.1998 -38.3697,-18.6312 -68.8245,-45.2385 -83.7039,-86.6953 -7.8508,-21.874 -10.2251,-44.5962 -9.8311,-67.6382 0.5328,-31.1544 7.9605,-60.4102 24.324,-87.2685 19.51,-32.022 46.6411,-55.2685 80.6336,-70.4931 27.8735,-12.484 57.2011,-18.7524 87.7849,-20.6119 42.2451,-2.5684 83.6401,1.4446 124.2873,12.9016 43.1375,12.1589 81.8047,33.2068 117.3133,60.2995 1.8415,1.4051 3.5437,2.9929 5.9228,5.0162 -19.6897,27.7704 -39.2356,55.3381 -59.1062,83.3634 -2.4731,-1.4795 -4.4602,-2.5195 -6.2908,-3.7856 -32.1645,-22.2445 -65.8874,-41.368 -103.8884,-51.9261 -16.0696,-4.4649 -32.4089,-6.759 -49.0991,-7.8992 -20.1968,-1.3798 -39.7327,0.6285 -58.8613,6.8965 -13.5303,4.4335 -25.1155,12.0324 -34.939,22.387 -22.9341,24.1738 -25.041,63.6795 -3.4358,88.4018 6.8167,7.7999 16.1382,13.8573 25.2297,19.1333 21.7503,12.6226 46.0064,18.9726 69.9917,25.7757 33.8985,9.6149 68.0621,18.3537 101.7251,28.7233 26.7566,8.2422 52.5594,19.2587 75.083,36.4083 8.9593,6.8217 17.0096,14.837 25.8389,22.9201 z"
   id="path10"
   style="fill:#ffffff;stroke-width:0.999999" /><path
   fill="#676868"
   opacity="1"
   stroke="none"
   d="m 5505.9958,292.38796 c -30.8862,-3e-4 -60.7725,-3e-4 -91.1641,-3e-4 0,57.3607 0,113.5028 0,170.7047 104.9244,0 209.3716,0 314.334,0 0,33.5652 0,66.0744 0,99.6503 -104.6064,0 -209.0508,0 -314.6094,0 0,85.5105 0,169.9689 0,255.0327 -36.602,0 -72.0878,0 -108.2255,0 0,-208.1121 0,-415.9072 0,-623.7346 6.7988,-2.0645 450.5952,-2.6556 463.4394,-0.4944 0,32.4337 0,64.9623 0,98.8418 -87.7036,0 -175.2388,0 -263.7744,-2e-4 z"
   id="path11"
   style="fill:#ffffff;stroke-width:0.999999" /><path
   fill="#5EC6C5"
   opacity="1"
   stroke="none"
   d="m 118.03097,1220.9158 c -17.5963,-42.2785 -27.204005,-85.3404 -26.241305,-130.3949 8.602705,-2.4183 637.032705,-3.0405 661.694405,-0.6829 -91.2016,4.7805 -167.741,38.8728 -229.8772,103.1606 -62.3552,64.5145 -93.2795,142.7424 -95.0546,233.7137 -4.2366,0 -7.4389,0.161 -10.6211,-0.023 -41.0845,-2.3939 -81.0533,-9.9177 -119.0899,-26.173 -35.1702,-15.0304 -66.968,-35.1921 -95.5931,-60.7273 -32.2481,-28.7666 -57.2746,-62.7896 -77.0802,-100.91 -2.9096,-5.6002 -5.267,-11.4872 -8.137,-17.9617 z"
   id="path12"
   style="fill:#ffffff;stroke-width:0.999999" /><path
   fill="#686868"
   opacity="1"
   stroke="none"
   d="m 4254.3107,233.01356 c 0,20.9429 0,40.886 0,61.9872 -66.1128,0 -131.5444,0 -197.7837,0 0,174.6794 0,348.1964 0,521.4617 -7.7172,2.3484 -99.8598,2.8022 -112.1269,0.5785 0,-173.5161 0,-347.2514 0,-521.7955 -66.3652,0 -131.5601,0 -197.4229,0 0,-34.2778 0,-67.7501 0,-101.2086 7.0831,-2.0282 493.0582,-2.6701 507.3335,-0.5094 0,12.6916 0,25.5889 0,39.4861 z"
   id="path13"
   style="fill:#ffffff;stroke-width:0.999999" /><path
   fill="#0EB899"
   opacity="1"
   stroke="none"
   d="m 1060.153,360.67996 c -23.9393,-66.8943 -14.8943,-127.7115 30.637,-181.8481 27.6352,-32.8585 63.4497,-51.9964 105.9515,-58.2074 52.6164,-7.689 100.0594,5.093 140.3927,39.5181 37.2427,31.7872 58.1,72.6051 61.338,122.2126 2.6547,40.6686 -6.9261,77.8261 -29.8928,111.1836 -29.0283,42.1617 -69.3105,67.7173 -119.9774,74.8467 -57.1652,8.0437 -107.1481,-8.8027 -148.9353,-48.5685 -17.2721,-16.4365 -30.1272,-36.2817 -39.5137,-59.137 z"
   id="path14"
   style="fill:#e6e6e6;stroke-width:0.999999" /><path
   fill="#696868"
   opacity="1"
   stroke="none"
   d="m 3124.2023,1025.0818 c 40.7935,-12.3053 80.5745,-11.8426 118.5821,6.0555 50.9736,24.0035 79.2983,65.0005 85.562,121.1457 4.6484,41.6676 -5.5408,79.4135 -31.6587,111.9983 -28.8066,35.9393 -66.8796,54.8505 -113.1311,56.8434 -28.0972,1.2108 -55.1826,-2.9296 -80.2866,-16.0803 -45.3125,-23.7368 -71.6746,-61.3065 -79.5166,-111.7051 -5.9536,-38.2621 1.2959,-74.0343 21.9345,-106.9284 16.635,-26.5134 40.0196,-45.0123 68.5359,-57.3472 3.0489,-1.3189 6.1409,-2.5378 9.9785,-3.9819 m 68.096,41.9596 c -10.187,-1.5687 -20.344,-2.2021 -30.648,-0.6403 -23.9687,3.6331 -44.2824,13.931 -59.792,32.7268 -18.8061,22.7903 -26.5854,48.9874 -24.2968,78.552 2.1247,27.4543 12.751,50.6229 32.521,69.6047 29.9914,28.7955 78.8916,33.7719 114.7705,12.8495 48.9773,-28.5607 63.5393,-96.1763 35.0483,-145.3882 -14.812,-25.5837 -37.1374,-41.1224 -67.603,-47.7045 z"
   id="path15"
   style="fill:#ffffff;stroke-width:0.999999" /><path
   fill="#686969"
   opacity="1"
   stroke="none"
   d="m 2608.2971,1095.013 c 0,-24.5822 0,-48.1642 0,-72.3325 17.5046,0 34.0427,0 51.9255,0 0,40.217 0,80.2993 0,120.8794 47.1858,0 93.0337,0 139.8118,0 0,-40.339 0,-80.2172 0,-120.7827 17.7495,0 34.5779,0 51.8479,0 0,97.6064 0,194.8516 0,292.0369 -7.4173,2.0019 -40.3108,2.2723 -51.2478,0.3349 0,-40.0653 0,-80.2834 0,-120.2783 -7.6355,-2.1229 -125.3008,-2.7291 -140.2205,-0.7797 0,40.2915 0,80.7566 0,121.7544 -17.6604,0 -34.1748,0 -52.1169,0 0,-73.4721 0,-146.6523 0,-220.8325 z"
   id="path16"
   style="fill:#ffffff;stroke-width:0.999999" /><path
   fill="#696969"
   opacity="1"
   stroke="none"
   d="m 5065.9147,1178.9966 c 19.9073,45.7206 39.5401,90.7312 59.8975,137.4035 -4.772,0 -8.2637,0 -11.7549,0 -11.9907,-10e-5 -23.9961,-0.3541 -35.9663,0.1429 -6.3984,0.2657 -9.2778,-2.1431 -11.6079,-7.9696 -8.3789,-20.9535 -17.3726,-41.6614 -26.3144,-62.8903 -45.6451,0 -91.1392,0 -137.4708,0 -4.6044,10.5872 -9.3994,21.4728 -14.0776,32.4087 -4.4399,10.3779 -8.8979,20.7522 -13.0625,31.2415 -1.9131,4.8184 -4.3364,7.3924 -10.1704,7.2184 -15.2065,-0.4534 -30.4355,-0.1527 -47.0879,-0.1527 6.5742,-15.229 12.5371,-29.1719 18.6025,-43.07 26.4473,-60.5976 52.9151,-121.1861 79.3941,-181.7697 9.581,-21.9211 19.292,-43.786 28.749,-65.7602 1.626,-3.7791 3.4273,-5.9011 7.9517,-5.8062 12.6513,0.2653 25.3208,0.3677 37.9643,-0.039 5.2989,-0.1708 6.75,2.8924 8.4077,6.7059 11.7901,27.1261 23.6563,54.219 35.5064,81.3188 10.2495,23.4384 20.5093,46.8725 31.0395,71.0182 m -140.187,10.8096 c -1.04,2.8667 -2.08,5.7337 -3.2412,8.9345 33.1104,0 64.9439,0 98.3032,0 -16.5297,-38.2354 -32.6879,-75.611 -49.6381,-114.8191 -15.5718,36.2789 -30.2046,70.3694 -45.4239,105.8846 z"
   id="path17"
   style="fill:#ffffff;stroke-width:0.999999" /><path
   fill="#696767"
   opacity="1"
   stroke="none"
   d="m 6145.9958,1143.0972 c 78.1992,0 155.3984,0 233.1426,0 0,17.4915 0,33.9988 0,51.2588 -226.0738,0 -452.065,0 -678.7573,0 0,-16.6252 0,-33.3771 0,-51.2588 148.3271,0 296.4711,0 445.6147,0 z"
   id="path18"
   style="fill:#ffffff;stroke-width:0.999999" /><path
   fill="#686767"
   opacity="1"
   stroke="none"
   d="m 2211.9958,1195.1024 c -164.9209,0 -328.8416,0 -494.0447,0 -0.093,-8.9477 -0.2151,-17.4425 -0.2604,-25.9378 -0.044,-8.2786 -0.011,-16.5577 -0.011,-25.4441 226.8462,0 452.9524,0 680.482,0 0.049,8.3671 0.1167,16.8607 0.1418,25.3544 0.024,8.2731 0.01,16.546 0.01,26.0275 -62.2618,0 -123.7881,0 -186.3145,0 z"
   id="path19"
   style="fill:#ffffff;stroke-width:0.999999" /><path
   fill="#686969"
   opacity="1"
   stroke="none"
   d="m 3873.6716,1259.013 c 0,-79.2661 0,-157.5323 0,-236.9348 4.0415,0 7.291,0 10.541,0 36.3223,0 72.6465,-0.1833 108.9668,0.072 20.5215,0.1444 40.4902,3.8274 58.6782,13.7447 29.6758,16.181 46.1944,41.0229 48.5713,75.1678 1.1431,16.4168 0.2026,32.4673 -5.8613,47.7934 -12.3946,31.328 -36.9492,48.7006 -68.2583,57.6802 -15.0806,4.3251 -30.6138,5.9456 -46.3208,5.8814 -17.6211,-0.072 -35.2427,-0.019 -54.1314,-0.019 0,31.3878 0,62.1505 0,93.4416 -17.7719,0 -34.2744,0 -52.185,0 0,-18.7902 0,-37.3098 -5e-4,-56.8293 m 142.7602,-90.2296 c 31.0674,-14.6924 41.6011,-51.3584 21.8916,-77.5276 -11.2768,-14.9722 -27.5239,-20.4323 -45.5644,-20.7787 -19.6563,-0.3776 -39.3247,-0.1153 -58.9878,-0.048 -2.5137,0.011 -5.0254,0.5248 -7.4429,0.7953 0,34.5829 0,68.403 0,103.1606 3.8946,0 7.1572,0 10.4199,0 16.9971,0 34.0196,0.5604 50.9805,-0.2253 9.1397,-0.4232 18.1724,-3.1523 28.7031,-5.3767 z"
   id="path20"
   style="fill:#ffffff;stroke-width:0.999999" /><path
   fill="#696969"
   opacity="1"
   stroke="none"
   d="m 3688.406,1182.6679 c 26.7636,30.8456 20.1718,85.9307 -8.2417,111.4015 -15.6661,14.0432 -34.1646,21.8713 -54.6636,24.628 -44.0796,5.9274 -85.4414,-2.1759 -123.2058,-26.1455 -8.6172,-5.4692 -16.4727,-12.1379 -25.5298,-18.8886 10.8801,-12.9484 21.0818,-25.0894 31.8948,-37.9576 3.7912,2.7642 7.2492,5.1458 10.5573,7.7204 18.3863,14.3108 38.3301,25.2997 61.7351,28.7804 16.2676,2.419 32.565,3.2174 48.1529,-3.2371 12.2192,-5.0597 21.4975,-12.8467 23.3672,-27.2834 1.7124,-13.2229 -2.2984,-23.9588 -13.6919,-30.4678 -9.1324,-5.217 -19.126,-9.2903 -29.1841,-12.4481 -21.8516,-6.8611 -44.1262,-12.3798 -65.9561,-19.3042 -12.3828,-3.9279 -23.5722,-10.486 -33.2141,-19.6195 -10.2803,-9.7384 -16.9521,-21.3217 -19.5532,-35.1095 -2.5979,-13.7697 -3.1421,-27.6594 0.3972,-41.385 8.1558,-31.6274 29.1292,-51.539 59.721,-59.8672 45.6276,-12.4218 88.9802,-5.0233 129.1438,20.092 5.309,3.32 10.288,7.1684 16.2866,11.3809 -9.5381,13.5577 -18.6402,26.4956 -28.1299,39.9852 -7.9121,-4.873 -15.3374,-9.7975 -23.084,-14.1498 -20.1391,-11.3143 -41.6108,-17.7227 -64.9321,-15.596 -14.4614,1.3188 -27.2322,6.3714 -35.1453,19.6447 -7.6867,12.8938 -4.1421,30.2372 7.8494,39.3202 12.5605,9.5142 27.6289,12.7472 42.2851,17.0486 17.857,5.241 35.837,10.1196 53.4903,15.9794 15.0073,4.9813 28.3349,13.1483 39.6509,25.478 z"
   id="path21"
   style="fill:#ffffff;stroke-width:0.999999" /><path
   fill="#676767"
   opacity="1"
   stroke="none"
   d="m 4573.6823,1085.2292 c -5e-4,-4.9153 -5e-4,-8.86 -5e-4,-13.9625 -30.8476,0 -60.9511,0 -91.5141,0 0,-16.6683 0,-32.1541 0,-48.2627 78.9326,0 157.4209,0 237.1806,0 0.1122,7.8432 0.2672,15.6782 0.3246,23.514 0.056,7.6383 0.011,15.2776 0.011,24.3264 -10.5351,0.5402 -20.7231,0.1761 -30.8818,0.2438 -9.9976,0.066 -19.9956,0.015 -29.9936,0.015 -10.314,0 -20.628,0 -32.2369,0 -0.5263,13.9371 -0.1898,27.4712 -0.251,40.9864 -0.06,13.3303 -0.011,26.6609 -0.011,39.9914 0,13.6637 0,27.3275 0,40.9912 0,13.6637 0,27.3274 0,40.9911 0,13.3304 0,26.6609 0,39.9913 0,13.6349 0,27.2698 0,41.6133 -17.4708,0 -34.2765,0 -51.0235,0 -0.3402,-0.2385 -0.6778,-0.3809 -0.8676,-0.6338 -0.1901,-0.2533 -0.3266,-0.6169 -0.3277,-0.9325 -0.1455,-75.967 -0.2763,-151.9342 -0.4082,-228.8718 z"
   id="path22"
   style="fill:#ffffff;stroke-width:0.999999" /><path
   fill="#696969"
   opacity="1"
   stroke="none"
   d="m 5290.5939,1316.4068 c -3.1543,-0.2854 -5.3803,-0.5695 -7.9199,-0.8938 0,-97.7013 0,-194.8893 0,-292.761 17.1577,0 33.9776,0 51.5825,0 0,81.9049 0,163.4234 0,246.1144 51.5079,0 102.252,0 153.4922,0 0,16.2853 0,31.3923 0,47.5411 -65.7885,0 -131.0078,0 -197.1548,-7e-4 z"
   id="path23"
   style="fill:#ffffff;stroke-width:0.999999" /><path
   fill="#676767"
   opacity="1"
   stroke="none"
   d="m 4263.6818,1241.013 c 0,-73.2218 0,-145.4436 0,-218.0811 17.9717,0 34.772,0 52.0992,0 0,97.7441 0,194.939 0,292.7948 -17.021,0 -33.8467,0 -52.0992,0 0,-24.6782 0,-49.196 0,-74.7137 z"
   id="path24"
   style="fill:#ffffff;stroke-width:0.999999" /><path
   fill="#2ebda8"
   opacity="1"
   stroke="none"
   d="m 933.31907,392.50436 c -0.6679,0.1421 -1.0142,-0.3399 -1.1394,-1.4317 0.6443,-0.1793 1.0578,0.2932 1.1394,1.4317 z"
   id="path25"
   style="stroke-width:0.999999" /><path
   fill="#fefefe"
   opacity="1"
   stroke="none"
   d="m 2691.9777,513.11166 c 7.991,18.6373 15.6934,36.5714 23.7718,55.381 -71.0533,0 -141.0921,0 -212.6612,0 17.3223,-41.3415 34.9502,-81.9699 52.4588,-122.651 17.5637,-40.8084 34.9167,-81.7073 53.2888,-124.7371 28.1767,65.0587 55.5149,128.1813 83.1418,192.0071 z"
   id="path26"
   style="stroke-width:0.999999" /><path
   fill="#fefefe"
   opacity="1"
   stroke="none"
   d="m 4492.4045,529.46606 c 29.6108,-69.028 58.9155,-137.3552 88.2964,-205.8597 5.1743,5.8149 101.2109,226.0374 106.8618,244.8816 -70.2295,0 -140.2793,0 -211.6519,0 5.5015,-13.0233 10.8448,-25.6721 16.4937,-39.0219 z"
   id="path27"
   style="stroke-width:0.999999" /><path
   fill="#fefefe"
   opacity="1"
   stroke="none"
   d="m 3193.1584,1067.0948 c 29.6055,6.5287 51.9309,22.0674 66.7429,47.6511 28.491,49.2119 13.929,116.8275 -35.0483,145.3882 -35.8789,20.9224 -84.7791,15.946 -114.7705,-12.8495 -19.77,-18.9818 -30.3963,-42.1504 -32.521,-69.6047 -2.2886,-29.5646 5.4907,-55.7617 24.2968,-78.552 15.5096,-18.7958 35.8233,-29.0937 59.792,-32.7268 10.304,-1.5618 20.461,-0.9284 31.5081,0.6937 z"
   id="path28"
   style="stroke-width:0.999999" /><path
   fill="#fdfefe"
   opacity="1"
   stroke="none"
   d="m 4926.0212,1189.0939 c 14.9258,-34.8028 29.5586,-68.8933 45.1304,-105.1723 16.9502,39.2081 33.1084,76.5838 49.6381,114.8192 -33.3593,0 -65.1928,0 -98.3032,0 1.1612,-3.2009 2.2012,-6.0678 3.5347,-9.6469 z"
   id="path29"
   style="stroke-width:0.999999" /><path
   fill="#fefdfd"
   opacity="1"
   stroke="none"
   d="m 4015.7067,1169.0512 c -9.8056,1.9566 -18.8383,4.6856 -27.978,5.1089 -16.9609,0.7856 -33.9834,0.2252 -50.9805,0.2252 -3.2627,0 -6.5253,0 -10.4199,0 0,-34.7576 0,-68.5777 0,-103.1606 2.4175,-0.2706 4.9292,-0.7867 7.4429,-0.7953 19.6631,-0.068 39.3315,-0.3296 58.9878,0.048 18.0405,0.3466 34.2876,5.8065 45.5644,20.7787 19.7095,26.1692 9.1758,62.8352 -22.6167,77.7954 z"
   id="path30"
   style="stroke-width:0.999999" /></svg>
