<svg version="1.1" id="Layer_1" xmlns="http://www.w3.org/2000/svg" xmlns:xlink="http://www.w3.org/1999/xlink" x="0px" y="0px"
	 width="100%" viewBox="0 0 1218 272" enable-background="new 0 0 1218 272" xml:space="preserve">
<path fill="#FDFFFE" opacity="1.000000" stroke="none" 
	d="
M800.000000,273.000000 
	C533.333313,273.000000 267.166656,273.000000 1.000000,273.000000 
	C1.000000,182.333328 1.000000,91.666664 1.000000,1.000000 
	C407.000000,1.000000 813.000000,1.000000 1219.000000,1.000000 
	C1219.000000,91.666664 1219.000000,182.333328 1219.000000,273.000000 
	C1079.500000,273.000000 940.000000,273.000000 800.000000,273.000000 
M137.098434,96.618408 
	C137.700653,97.421883 138.302887,98.225349 138.915344,99.884018 
	C139.075806,101.577766 139.236267,103.271523 139.109467,105.866150 
	C139.109467,116.099449 139.109467,126.332748 139.109467,137.019272 
	C148.827835,137.019272 157.936905,137.163254 167.039734,136.986572 
	C181.821091,136.699707 192.903854,142.588043 199.839355,155.870178 
	C205.135834,166.013397 204.227386,175.854004 198.764755,185.609848 
	C194.917450,192.480820 189.295837,197.210144 181.204163,200.021790 
	C171.304230,200.556168 161.407333,201.160339 151.502945,201.592834 
	C147.139648,201.783356 142.761108,201.624908 138.496979,201.624908 
	C138.725784,205.045303 138.986862,207.167053 138.990860,209.289307 
	C139.023071,226.434647 138.999420,243.580093 139.015396,260.725494 
	C139.017334,262.812256 138.436462,265.265503 141.942657,265.223633 
	C154.756699,265.070557 167.703278,266.134216 180.362000,264.675201 
	C221.592987,259.922974 253.307541,231.729263 263.577209,191.298981 
	C266.606323,179.373703 268.007660,167.115387 264.222015,154.125473 
	C259.425995,133.987503 247.251144,119.835556 228.831619,110.910370 
	C213.982239,103.715103 198.068634,104.938881 182.267731,105.436234 
	C178.347946,105.559616 174.420959,105.454651 170.064392,105.454651 
	C170.064392,97.850777 170.164459,91.384811 170.036240,84.923370 
	C169.908127,78.467323 169.551575,72.015800 169.323807,64.765022 
	C165.916626,37.266773 145.435211,15.493162 117.185699,9.988906 
	C115.724579,9.682034 114.273949,9.174864 112.800804,9.097767 
	C81.109100,7.439180 54.977657,19.084986 34.264870,42.767387 
	C25.244230,53.081318 18.838583,64.915588 14.832486,78.308853 
	C12.042764,87.635506 10.405945,96.795082 10.577521,106.435791 
	C10.731616,115.094254 10.593923,123.757690 10.627989,132.418762 
	C10.633573,133.838348 10.861337,135.257080 10.980983,136.614594 
	C32.110874,136.614594 52.811508,136.614594 74.131165,136.614594 
	C74.131165,123.239967 74.131165,110.270706 74.649086,96.781212 
	C80.439301,80.262840 92.643600,71.916985 109.072105,73.044785 
	C121.098671,73.870384 135.400711,84.760529 137.098434,96.618408 
M594.534729,30.378662 
	C588.799011,30.378662 583.063293,30.378662 577.338806,30.378662 
	C577.338806,70.684174 577.338806,109.750664 577.338806,148.867142 
	C584.097656,148.867142 590.491638,148.867142 597.459717,148.867142 
	C597.459717,121.153847 597.459717,93.808708 597.459717,65.654106 
	C601.254089,69.804657 604.639404,73.015274 607.453552,76.666122 
	C625.264526,99.772728 642.929077,122.992165 660.727051,146.108902 
	C661.748108,147.435104 663.458740,148.951218 664.948120,149.063995 
	C669.863831,149.436172 674.825378,149.204254 679.955383,149.204254 
	C679.955383,109.367584 679.955383,70.128708 679.955383,30.724976 
	C673.282837,30.724976 666.905762,30.724976 659.645508,30.724976 
	C659.645508,57.695045 659.645508,84.190712 659.645508,110.686378 
	C657.670044,109.923187 656.776917,108.984947 655.987671,107.966217 
	C640.177734,87.558365 624.414612,67.114044 608.556335,46.743893 
	C604.285645,41.258179 599.732971,35.992050 594.534729,30.378662 
M1177.500000,49.151566 
	C1187.435913,49.151566 1197.371826,49.151566 1207.430664,49.151566 
	C1207.430664,42.749081 1207.430664,37.019459 1207.430664,31.293915 
	C1178.507690,31.293915 1149.931763,31.293915 1120.611572,31.293915 
	C1120.611572,70.686417 1120.611572,109.661194 1120.611572,148.815674 
	C1149.643555,148.815674 1179.000366,148.815674 1208.313232,148.815674 
	C1208.313232,142.662018 1208.313232,136.933228 1208.313232,130.514389 
	C1185.494995,130.514389 1163.060791,130.514389 1140.549683,130.514389 
	C1140.549683,119.580322 1140.549683,109.354912 1140.549683,98.609772 
	C1160.517090,98.609772 1180.109375,98.609772 1199.656982,98.609772 
	C1199.656982,92.188210 1199.656982,86.302200 1199.656982,79.739037 
	C1179.677979,79.739037 1160.120605,79.739037 1140.596436,79.739037 
	C1140.596436,69.161942 1140.596436,59.282055 1140.596436,49.151630 
	C1152.856689,49.151630 1164.678345,49.151630 1177.500000,49.151566 
M850.675781,44.265095 
	C850.416809,45.728287 850.449280,47.324097 849.853210,48.633888 
	C844.544128,60.300587 838.926147,71.830338 833.796387,83.573952 
	C829.333130,93.791779 825.627075,104.340935 821.143982,114.549347 
	C816.131409,125.963326 810.620483,137.158401 804.959717,149.230820 
	C810.966309,149.230820 816.402405,149.063889 821.820984,149.299393 
	C824.640808,149.421951 826.010498,148.326233 827.019287,145.847717 
	C830.028076,138.454956 833.079590,131.071991 836.442322,123.837616 
	C837.080505,122.464828 839.211731,120.942261 840.671692,120.924316 
	C857.488586,120.717621 874.312500,120.622391 891.123840,120.988556 
	C893.292114,121.035774 896.309448,123.399666 897.351685,125.482132 
	C899.720581,130.215134 900.850769,135.552002 902.981384,140.426208 
	C904.339478,143.533127 906.195679,148.303940 908.512207,148.745941 
	C914.653687,149.917816 921.166565,149.143524 928.080811,149.143524 
	C922.464783,136.304443 917.201233,124.290070 911.953003,112.269066 
	C900.508606,86.055710 889.033997,59.855385 877.684448,33.601009 
	C876.395386,30.618982 874.824097,29.035971 871.385071,29.347076 
	C867.581360,29.691174 863.740234,29.636976 859.914612,29.719057 
	C857.259644,29.776018 855.805725,30.826187 855.057251,33.639679 
	C854.146057,37.064682 852.440613,40.278389 850.675781,44.265095 
M503.663635,38.813522 
	C499.688568,29.642809 499.688599,29.644821 489.699585,29.832201 
	C487.534271,29.872820 485.272034,29.520481 483.235321,30.047768 
	C481.757111,30.430470 479.966827,31.695477 479.374573,33.035145 
	C477.301544,37.724606 475.931061,42.725216 473.848663,47.409794 
	C469.501709,57.188641 464.665710,66.752350 460.409302,76.568611 
	C455.264526,88.433640 450.686127,100.544266 445.540833,112.409065 
	C440.291901,124.513008 434.652588,136.447678 428.833557,149.226425 
	C434.902100,149.226425 440.203125,149.039627 445.482422,149.297821 
	C448.556946,149.448181 449.871826,148.161560 450.934357,145.479263 
	C453.752502,138.365005 456.707642,131.293549 459.969238,124.375214 
	C460.700104,122.824898 462.892151,120.971657 464.436462,120.948860 
	C481.262695,120.700470 498.094452,120.728371 514.922729,120.886795 
	C516.459961,120.901276 518.791748,121.954254 519.376282,123.181465 
	C522.168640,129.044266 524.374084,135.183212 527.019897,141.120697 
	C528.270630,143.927521 529.733887,148.525986 531.631897,148.813995 
	C538.022461,149.783859 544.651367,149.182999 551.863281,149.182999 
	C535.625488,112.024254 519.784485,75.773529 503.663635,38.813522 
M333.289398,118.229317 
	C332.031982,119.138336 330.511688,119.834839 329.570374,120.999390 
	C327.428680,123.648979 325.886536,126.840919 323.515564,129.232315 
	C320.783081,131.988342 321.645599,133.536667 324.218445,135.523346 
	C343.456970,150.378738 364.850769,154.840286 388.154877,148.038513 
	C402.564148,143.832855 411.063995,131.821350 411.669312,116.720802 
	C412.254700,102.116104 405.178802,91.853966 390.321014,85.826988 
	C388.321320,85.015839 386.276978,84.299286 384.217133,83.654549 
	C374.095886,80.486557 363.795502,77.800247 353.889343,74.065941 
	C346.773102,71.383362 344.255829,66.327156 345.067291,60.059460 
	C345.827881,54.184673 350.783295,49.460323 357.478455,48.004581 
	C366.509674,46.040909 375.048645,47.805744 383.216034,51.554153 
	C387.841827,53.677166 392.184845,56.416416 397.018860,59.078362 
	C400.636383,53.937195 404.202118,48.869640 407.882111,43.639694 
	C391.247620,30.551846 373.035278,25.978436 353.321686,30.014057 
	C338.266602,33.096027 328.218994,43.122517 325.268585,58.334034 
	C322.920990,70.437477 327.078979,84.410057 340.541595,90.861710 
	C347.524841,94.208260 355.172272,96.178894 362.541718,98.706726 
	C369.749268,101.179024 377.111176,103.253159 384.177246,106.073441 
	C393.670868,109.862625 394.578491,125.640556 384.128937,129.761200 
	C380.181274,131.317902 375.900085,132.701035 371.718536,132.870499 
	C357.203613,133.458771 344.905914,127.622192 333.289398,118.229317 
M1021.265076,149.227936 
	C1024.368164,149.658585 1024.739136,147.901855 1024.721802,145.340485 
	C1024.633301,132.341110 1024.670776,119.340813 1024.692383,106.340889 
	C1024.695312,104.599434 1024.858521,102.858238 1024.969849,100.679840 
	C1045.170776,100.679840 1064.752319,100.679840 1084.774902,100.679840 
	C1084.774902,95.742462 1084.547485,91.256851 1084.843628,86.806091 
	C1085.101685,82.928009 1083.497070,81.904808 1079.904663,82.047821 
	C1071.747559,82.372536 1063.579590,82.484909 1055.415039,82.547935 
	C1045.311646,82.625931 1035.207275,82.566597 1025.011841,82.566597 
	C1025.011841,70.759842 1025.011841,60.190151 1025.011841,48.963982 
	C1047.542114,48.963982 1069.748901,48.963982 1091.931641,48.963982 
	C1091.931641,42.663364 1091.931641,37.024254 1091.931641,31.091322 
	C1062.897461,31.091322 1034.062744,31.091322 1005.219238,31.091322 
	C1005.219238,70.727013 1005.219238,109.661774 1005.219238,149.230377 
	C1010.426575,149.230377 1015.370422,149.230377 1021.265076,149.227936 
M14.309669,223.126968 
	C24.160872,251.020950 51.759956,266.902832 73.329437,264.492950 
	C75.813728,232.957611 92.347893,212.408569 122.136208,201.965958 
	C85.169334,201.965958 48.202461,201.965958 9.611792,201.965958 
	C11.169891,209.498764 12.511245,215.983688 14.309669,223.126968 
M795.913269,30.690096 
	C766.391296,30.690096 736.869263,30.690096 707.407104,30.690096 
	C707.407104,37.798645 707.407104,43.586689 707.407104,49.932739 
	C717.904541,49.932739 728.195007,49.931648 738.485413,49.933125 
	C745.552429,49.934135 745.652344,50.021896 745.654358,57.315254 
	C745.662354,85.972275 745.659180,114.629295 745.660156,143.286316 
	C745.660217,145.068420 745.660156,146.850510 745.660156,148.917999 
	C752.361938,148.917999 758.583923,148.917999 765.339111,148.917999 
	C765.339111,115.871544 765.339111,83.137138 765.339111,49.897854 
	C778.104248,49.897854 790.348450,49.897854 802.838562,49.897854 
	C802.838562,43.311001 802.838562,37.234291 802.838562,30.568987 
	C800.676880,30.568987 798.735474,30.568987 795.913269,30.690096 
M217.626816,82.099297 
	C223.203232,82.014961 228.981964,82.850021 234.318527,81.675720 
	C251.031540,77.998085 261.757172,59.521999 257.898102,42.175842 
	C254.168030,25.409483 236.812164,13.258742 220.414719,16.830034 
	C203.580643,20.496420 189.821793,35.648117 193.504227,55.963989 
	C195.982635,69.637146 204.079636,77.741142 217.626816,82.099297 
M574.390625,200.040039 
	C573.380188,202.560150 572.653931,205.245438 571.303833,207.568146 
	C567.817444,213.566193 568.379211,220.267990 570.449646,225.833908 
	C575.785461,240.177979 585.728394,246.237518 600.908813,245.106644 
	C614.113892,244.122910 625.481750,232.994400 626.788513,219.510559 
	C628.158020,205.379791 619.559937,192.377518 606.482117,188.902695 
	C593.640503,185.490631 583.502869,190.367111 574.390625,200.040039 
M526.896118,190.776718 
	C526.883606,196.604507 526.999756,202.437637 526.757080,208.255829 
	C526.704590,209.515564 525.395081,211.767212 524.609924,211.791443 
	C516.225220,212.050186 507.829498,211.952255 498.944305,211.952255 
	C498.944305,203.598495 498.944305,196.352036 498.944305,188.706604 
	C495.673676,188.929993 492.953888,189.115768 490.432678,189.287979 
	C490.432678,207.903091 490.432678,225.828857 490.432678,244.119324 
	C493.351288,244.119324 496.084564,244.119324 499.266937,244.119324 
	C499.266937,236.413635 499.266937,228.980820 499.266937,221.014679 
	C507.147766,221.014679 514.598328,221.203568 522.032654,220.937302 
	C525.918396,220.798141 526.955688,222.480133 526.889526,225.935028 
	C526.775146,231.903900 526.857788,237.876556 526.857788,244.168915 
	C530.006592,244.168915 532.745422,244.168915 535.587158,244.168915 
	C535.587158,225.643219 535.587158,207.434418 535.587158,188.488525 
	C532.440063,188.992355 529.759155,189.421539 526.896118,190.776718 
M929.006958,204.544785 
	C927.365540,208.567917 925.756897,212.604828 924.075928,216.611374 
	C920.266785,225.690353 916.421936,234.754364 912.575378,243.862808 
	C920.467590,245.388702 920.623169,245.319016 923.578979,238.653503 
	C924.184814,237.287354 924.859375,235.930328 925.266479,234.501907 
	C926.089966,231.612228 927.903320,230.784760 930.823364,230.896759 
	C936.470825,231.113388 942.202393,231.509918 947.769165,230.805344 
	C953.557861,230.072708 955.623596,233.648087 957.122131,237.639801 
	C959.896790,245.030792 961.170410,245.911987 968.985291,243.561981 
	C961.272034,225.889954 953.606934,208.230911 945.783325,190.642426 
	C945.307434,189.572693 943.650696,188.576950 942.410339,188.378418 
	C937.611938,187.610458 935.048218,189.974121 933.408508,195.257477 
	C932.480591,198.247330 930.670288,200.963303 929.006958,204.544785 
M739.623108,188.827347 
	C731.308960,188.875305 731.320740,188.875305 731.323425,196.877960 
	C731.328186,210.844238 731.308594,224.810516 731.322510,238.776764 
	C731.324280,240.540695 731.466553,242.304489 731.542908,244.048340 
	C734.763672,244.048340 737.457458,244.048340 740.371216,244.048340 
	C740.371216,239.313965 740.522278,234.997757 740.321472,230.697968 
	C740.171936,227.496674 741.257629,226.232224 744.567505,226.333130 
	C748.710022,226.459427 752.903320,226.405670 757.010803,225.905090 
	C767.218262,224.661102 773.842346,217.336960 773.944824,207.593887 
	C774.049194,197.672379 767.975342,190.286499 758.032837,189.165253 
	C752.279297,188.516403 746.408386,188.907715 739.623108,188.827347 
M665.304199,191.794128 
	C661.214294,194.837189 658.464294,198.817719 657.967957,203.906769 
	C657.304138,210.713425 662.090393,216.844620 670.242371,219.189651 
	C675.184509,220.611313 680.266785,221.793152 684.898743,223.924637 
	C686.776001,224.788513 688.808716,228.003433 688.626099,229.947037 
	C688.416565,232.177322 686.245483,235.043945 684.160217,236.056946 
	C681.869019,237.170044 678.497925,237.188248 675.965149,236.439438 
	C670.818909,234.917984 665.920288,232.559174 660.836670,230.512054 
	C655.809204,236.195450 655.789429,238.370911 662.837708,241.221542 
	C668.373901,243.460663 674.617371,244.266129 680.631042,244.874542 
	C683.574036,245.172272 686.921509,244.030487 689.713379,242.736496 
	C695.714294,239.955170 698.464966,234.924332 698.425537,228.264053 
	C698.387390,221.823761 695.339539,217.403915 689.490906,215.182785 
	C684.073730,213.125534 678.405884,211.737015 672.940552,209.794632 
	C669.488892,208.567871 666.329163,206.459778 667.331787,202.158646 
	C668.299622,198.006775 671.777039,196.045944 675.720947,196.698944 
	C681.143433,197.596802 686.419312,199.380280 692.388855,200.950226 
	C693.382019,199.484802 694.922058,197.212570 696.417908,195.005508 
	C687.541504,187.165939 675.427490,185.864716 665.304199,191.794128 
M1144.500000,221.305435 
	C1165.739502,221.305435 1186.979004,221.305435 1208.467773,221.305435 
	C1208.562744,219.344070 1208.688721,218.045807 1208.671753,216.749420 
	C1208.652954,215.301651 1208.504395,213.855576 1208.415283,212.455261 
	C1165.420288,212.455261 1122.784424,212.455261 1080.257812,212.455261 
	C1080.039551,215.551575 1079.860352,218.093674 1079.634033,221.305618 
	C1100.980347,221.305618 1122.240234,221.305618 1144.500000,221.305435 
M400.499939,221.305435 
	C416.570496,221.305435 432.641052,221.305435 448.824280,221.305435 
	C448.824280,217.884720 448.824280,215.148575 448.824280,211.950363 
	C447.089630,211.950363 445.631836,211.950073 444.174011,211.950409 
	C405.403809,211.959396 366.633575,211.975204 327.863373,211.972107 
	C319.516266,211.971436 319.145447,212.397491 320.843842,221.305618 
	C346.991364,221.305618 373.245636,221.305618 400.499939,221.305435 
M869.500122,188.895187 
	C862.404114,188.895187 855.308167,188.895187 848.088989,188.895187 
	C848.088989,192.148163 848.088989,194.602722 848.088989,197.724594 
	C850.210754,197.724594 852.161316,197.724304 854.111938,197.724640 
	C864.871704,197.726471 864.852722,197.726501 864.831848,208.573654 
	C864.809204,220.357910 864.826721,232.142258 864.826721,244.044693 
	C868.198608,244.044693 871.050598,244.044693 874.305542,244.044693 
	C874.305542,228.521912 874.305542,213.421707 874.305542,197.636444 
	C880.394592,197.636444 886.100342,197.636444 891.731323,197.636444 
	C891.731323,194.352814 891.731323,191.768784 891.731323,188.895950 
	C884.436707,188.895950 877.468323,188.895950 869.500122,188.895187 
M1023.491394,244.489929 
	C1028.439819,244.489929 1033.388184,244.489929 1038.461792,244.489929 
	C1038.461792,241.376434 1038.461792,238.848694 1038.461792,236.079712 
	C1030.954346,236.079712 1023.825500,236.089539 1016.696655,236.077011 
	C1009.345703,236.064087 1009.340515,236.054565 1009.338196,228.656509 
	C1009.334167,215.547226 1009.337097,202.437958 1009.337097,189.282532 
	C1006.155396,189.282532 1003.431763,189.282532 1000.470215,189.282532 
	C1000.470215,207.751755 1000.470215,225.781586 1000.470215,244.488342 
	C1007.963440,244.488342 1015.228760,244.488342 1023.491394,244.489929 
M815.056519,240.232224 
	C815.056519,223.183426 815.056519,206.134613 815.056519,188.582336 
	C811.436951,188.777954 808.546326,188.934174 805.768372,189.084305 
	C805.768372,207.800705 805.768372,225.983932 805.768372,244.482239 
	C808.175720,244.482239 810.272461,244.883942 812.085815,244.340378 
	C813.285706,243.980713 814.079163,242.265060 815.056519,240.232224 
z"/>
<path fill="#35CEBE" opacity="1.000000" stroke="none" 
	d="
M264.164825,154.930740 
	C268.007660,167.115387 266.606323,179.373703 263.577209,191.298981 
	C253.307541,231.729263 221.592987,259.922974 180.362000,264.675201 
	C167.703278,266.134216 154.756699,265.070557 141.942657,265.223633 
	C138.436462,265.265503 139.017334,262.812256 139.015396,260.725494 
	C138.999420,243.580093 139.023071,226.434647 138.990860,209.289307 
	C138.986862,207.167053 138.725784,205.045303 138.496979,201.624908 
	C142.761108,201.624908 147.139648,201.783356 151.502945,201.592834 
	C161.407333,201.160339 171.304230,200.556168 181.913788,200.324875 
	C193.511017,200.408813 204.679474,201.661316 215.224838,199.648773 
	C234.232971,196.021118 249.116196,185.430191 258.132996,167.710480 
	C260.268372,163.514053 262.160706,159.193954 264.164825,154.930740 
z"/>
<path fill="#04AC86" opacity="1.000000" stroke="none" 
	d="
M74.131165,97.301453 
	C74.131165,110.270706 74.131165,123.239967 74.131165,136.614594 
	C52.811508,136.614594 32.110874,136.614594 10.980983,136.614594 
	C10.861337,135.257080 10.633573,133.838348 10.627989,132.418762 
	C10.593923,123.757690 10.731616,115.094254 10.577521,106.435791 
	C10.405945,96.795082 12.042764,87.635506 14.832486,78.308853 
	C18.838583,64.915588 25.244230,53.081318 34.264870,42.767387 
	C54.977657,19.084986 81.109100,7.439180 112.800804,9.097767 
	C114.273949,9.174864 115.724579,9.682034 117.535934,10.445585 
	C117.212280,11.572046 116.643463,12.424281 115.847755,12.882538 
	C109.875664,16.321899 103.406326,19.081739 97.945129,23.188049 
	C84.301201,33.447010 76.511925,47.772953 74.300507,64.369408 
	C72.862350,75.162651 74.095047,86.311768 74.131165,97.301453 
z"/>
<path fill="#25C3AB" opacity="1.000000" stroke="none" 
	d="
M264.193420,154.528107 
	C262.160706,159.193954 260.268372,163.514053 258.132996,167.710480 
	C249.116196,185.430191 234.232971,196.021118 215.224838,199.648773 
	C204.679474,201.661316 193.511017,200.408813 182.320328,200.344971 
	C189.295837,197.210144 194.917450,192.480820 198.764755,185.609848 
	C204.227386,175.854004 205.135834,166.013397 199.839355,155.870178 
	C192.903854,142.588043 181.821091,136.699707 167.039734,136.986572 
	C157.936905,137.163254 148.827835,137.019272 139.109467,137.019272 
	C139.109467,126.332748 139.109467,116.099449 139.691544,105.417885 
	C147.743378,104.980400 155.228378,104.705681 162.677460,105.103554 
	C167.544937,105.363533 169.326950,104.203751 169.145096,98.898911 
	C168.764648,87.801468 169.196762,76.676155 169.295166,65.562294 
	C169.551575,72.015800 169.908127,78.467323 170.036240,84.923370 
	C170.164459,91.384811 170.064392,97.850777 170.064392,105.454651 
	C174.420959,105.454651 178.347946,105.559616 182.267731,105.436234 
	C198.068634,104.938881 213.982239,103.715103 228.831619,110.910370 
	C247.251144,119.835556 259.425995,133.987503 264.193420,154.528107 
z"/>
<path fill="#07AD87" opacity="1.000000" stroke="none" 
	d="
M594.922241,30.501892 
	C599.732971,35.992050 604.285645,41.258179 608.556335,46.743893 
	C624.414612,67.114044 640.177734,87.558365 655.987671,107.966217 
	C656.776917,108.984947 657.670044,109.923187 659.645508,110.686378 
	C659.645508,84.190712 659.645508,57.695045 659.645508,30.724976 
	C666.905762,30.724976 673.282837,30.724976 679.955383,30.724976 
	C679.955383,70.128708 679.955383,109.367584 679.955383,149.204254 
	C674.825378,149.204254 669.863831,149.436172 664.948120,149.063995 
	C663.458740,148.951218 661.748108,147.435104 660.727051,146.108902 
	C642.929077,122.992165 625.264526,99.772728 607.453552,76.666122 
	C604.639404,73.015274 601.254089,69.804657 597.459717,65.654106 
	C597.459717,93.808708 597.459717,121.153847 597.459717,148.867142 
	C590.491638,148.867142 584.097656,148.867142 577.338806,148.867142 
	C577.338806,109.750664 577.338806,70.684174 577.338806,30.378662 
	C583.063293,30.378662 588.799011,30.378662 594.922241,30.501892 
z"/>
<path fill="#08AD87" opacity="1.000000" stroke="none" 
	d="
M1177.000000,49.151596 
	C1164.678345,49.151630 1152.856689,49.151630 1140.596436,49.151630 
	C1140.596436,59.282055 1140.596436,69.161942 1140.596436,79.739037 
	C1160.120605,79.739037 1179.677979,79.739037 1199.656982,79.739037 
	C1199.656982,86.302200 1199.656982,92.188210 1199.656982,98.609772 
	C1180.109375,98.609772 1160.517090,98.609772 1140.549683,98.609772 
	C1140.549683,109.354912 1140.549683,119.580322 1140.549683,130.514389 
	C1163.060791,130.514389 1185.494995,130.514389 1208.313232,130.514389 
	C1208.313232,136.933228 1208.313232,142.662018 1208.313232,148.815674 
	C1179.000366,148.815674 1149.643555,148.815674 1120.611572,148.815674 
	C1120.611572,109.661194 1120.611572,70.686417 1120.611572,31.293915 
	C1149.931763,31.293915 1178.507690,31.293915 1207.430664,31.293915 
	C1207.430664,37.019459 1207.430664,42.749081 1207.430664,49.151566 
	C1197.371826,49.151566 1187.435913,49.151566 1177.000000,49.151596 
z"/>
<path fill="#13B797" opacity="1.000000" stroke="none" 
	d="
M169.309479,65.163658 
	C169.196762,76.676155 168.764648,87.801468 169.145096,98.898911 
	C169.326950,104.203751 167.544937,105.363533 162.677460,105.103554 
	C155.228378,104.705681 147.743378,104.980400 139.835175,104.967445 
	C139.236267,103.271523 139.075806,101.577766 139.169800,99.296600 
	C138.683075,97.801628 137.941895,96.894066 137.200714,95.986504 
	C135.400711,84.760529 121.098671,73.870384 109.072105,73.044785 
	C92.643600,71.916985 80.439301,80.262840 74.390121,97.041336 
	C74.095047,86.311768 72.862350,75.162651 74.300507,64.369408 
	C76.511925,47.772953 84.301201,33.447010 97.945129,23.188049 
	C103.406326,19.081739 109.875664,16.321899 115.847755,12.882538 
	C116.643463,12.424281 117.212280,11.572046 117.945877,10.555655 
	C145.435211,15.493162 165.916626,37.266773 169.309479,65.163658 
z"/>
<path fill="#09AD88" opacity="1.000000" stroke="none" 
	d="
M850.877258,43.924294 
	C852.440613,40.278389 854.146057,37.064682 855.057251,33.639679 
	C855.805725,30.826187 857.259644,29.776018 859.914612,29.719057 
	C863.740234,29.636976 867.581360,29.691174 871.385071,29.347076 
	C874.824097,29.035971 876.395386,30.618982 877.684448,33.601009 
	C889.033997,59.855385 900.508606,86.055710 911.953003,112.269066 
	C917.201233,124.290070 922.464783,136.304443 928.080811,149.143524 
	C921.166565,149.143524 914.653687,149.917816 908.512207,148.745941 
	C906.195679,148.303940 904.339478,143.533127 902.981384,140.426208 
	C900.850769,135.552002 899.720581,130.215134 897.351685,125.482132 
	C896.309448,123.399666 893.292114,121.035774 891.123840,120.988556 
	C874.312500,120.622391 857.488586,120.717621 840.671692,120.924316 
	C839.211731,120.942261 837.080505,122.464828 836.442322,123.837616 
	C833.079590,131.071991 830.028076,138.454956 827.019287,145.847717 
	C826.010498,148.326233 824.640808,149.421951 821.820984,149.299393 
	C816.402405,149.063889 810.966309,149.230820 804.959717,149.230820 
	C810.620483,137.158401 816.131409,125.963326 821.143982,114.549347 
	C825.627075,104.340935 829.333130,93.791779 833.796387,83.573952 
	C838.926147,71.830338 844.544128,60.300587 849.853210,48.633888 
	C850.449280,47.324097 850.416809,45.728287 850.877258,43.924294 
M883.094666,102.917152 
	C885.705139,102.909653 886.893738,101.749359 885.840698,99.171494 
	C884.797607,96.618195 883.512634,94.164894 882.393005,91.641457 
	C879.706116,85.585579 877.070374,79.507004 874.383240,73.451218 
	C871.700684,67.405457 868.980835,61.376251 865.819214,54.316780 
	C858.734070,70.858643 852.210571,86.089302 844.981506,102.967232 
	C858.097351,102.967232 870.134888,102.967232 883.094666,102.917152 
z"/>
<path fill="#09AD87" opacity="1.000000" stroke="none" 
	d="
M503.803589,39.168167 
	C519.784485,75.773529 535.625488,112.024254 551.863281,149.182999 
	C544.651367,149.182999 538.022461,149.783859 531.631897,148.813995 
	C529.733887,148.525986 528.270630,143.927521 527.019897,141.120697 
	C524.374084,135.183212 522.168640,129.044266 519.376282,123.181465 
	C518.791748,121.954254 516.459961,120.901276 514.922729,120.886795 
	C498.094452,120.728371 481.262695,120.700470 464.436462,120.948860 
	C462.892151,120.971657 460.700104,122.824898 459.969238,124.375214 
	C456.707642,131.293549 453.752502,138.365005 450.934357,145.479263 
	C449.871826,148.161560 448.556946,149.448181 445.482422,149.297821 
	C440.203125,149.039627 434.902100,149.226425 428.833557,149.226425 
	C434.652588,136.447678 440.291901,124.513008 445.540833,112.409065 
	C450.686127,100.544266 455.264526,88.433640 460.409302,76.568611 
	C464.665710,66.752350 469.501709,57.188641 473.848663,47.409794 
	C475.931061,42.725216 477.301544,37.724606 479.374573,33.035145 
	C479.966827,31.695477 481.757111,30.430470 483.235321,30.047768 
	C485.272034,29.520481 487.534271,29.872820 489.699585,29.832201 
	C499.688599,29.644821 499.688568,29.642809 503.803589,39.168167 
M495.783783,66.925514 
	C493.696228,63.099091 491.608643,59.272663 489.281006,55.006195 
	C482.524719,70.785324 475.958374,86.120972 468.818451,102.796112 
	C482.564301,102.796112 495.286957,102.851379 508.005249,102.642799 
	C508.684174,102.631660 510.098633,100.181526 509.835632,99.239609 
	C509.156708,96.808304 507.645966,94.622520 506.615570,92.273697 
	C503.024445,84.087723 499.496124,75.874214 495.783783,66.925514 
z"/>
<path fill="#08AD87" opacity="1.000000" stroke="none" 
	d="
M333.612549,118.391441 
	C344.905914,127.622192 357.203613,133.458771 371.718536,132.870499 
	C375.900085,132.701035 380.181274,131.317902 384.128937,129.761200 
	C394.578491,125.640556 393.670868,109.862625 384.177246,106.073441 
	C377.111176,103.253159 369.749268,101.179024 362.541718,98.706726 
	C355.172272,96.178894 347.524841,94.208260 340.541595,90.861710 
	C327.078979,84.410057 322.920990,70.437477 325.268585,58.334034 
	C328.218994,43.122517 338.266602,33.096027 353.321686,30.014057 
	C373.035278,25.978436 391.247620,30.551846 407.882111,43.639694 
	C404.202118,48.869640 400.636383,53.937195 397.018860,59.078362 
	C392.184845,56.416416 387.841827,53.677166 383.216034,51.554153 
	C375.048645,47.805744 366.509674,46.040909 357.478455,48.004581 
	C350.783295,49.460323 345.827881,54.184673 345.067291,60.059460 
	C344.255829,66.327156 346.773102,71.383362 353.889343,74.065941 
	C363.795502,77.800247 374.095886,80.486557 384.217133,83.654549 
	C386.276978,84.299286 388.321320,85.015839 390.321014,85.826988 
	C405.178802,91.853966 412.254700,102.116104 411.669312,116.720802 
	C411.063995,131.821350 402.564148,143.832855 388.154877,148.038513 
	C364.850769,154.840286 343.456970,150.378738 324.218445,135.523346 
	C321.645599,133.536667 320.783081,131.988342 323.515564,129.232315 
	C325.886536,126.840919 327.428680,123.648979 329.570374,120.999390 
	C330.511688,119.834839 332.031982,119.138336 333.612549,118.391441 
z"/>
<path fill="#09AD87" opacity="1.000000" stroke="none" 
	d="
M1020.789673,149.229156 
	C1015.370422,149.230377 1010.426575,149.230377 1005.219238,149.230377 
	C1005.219238,109.661774 1005.219238,70.727013 1005.219238,31.091322 
	C1034.062744,31.091322 1062.897461,31.091322 1091.931641,31.091322 
	C1091.931641,37.024254 1091.931641,42.663364 1091.931641,48.963982 
	C1069.748901,48.963982 1047.542114,48.963982 1025.011841,48.963982 
	C1025.011841,60.190151 1025.011841,70.759842 1025.011841,82.566597 
	C1035.207275,82.566597 1045.311646,82.625931 1055.415039,82.547935 
	C1063.579590,82.484909 1071.747559,82.372536 1079.904663,82.047821 
	C1083.497070,81.904808 1085.101685,82.928009 1084.843628,86.806091 
	C1084.547485,91.256851 1084.774902,95.742462 1084.774902,100.679840 
	C1064.752319,100.679840 1045.170776,100.679840 1024.969849,100.679840 
	C1024.858521,102.858238 1024.695312,104.599434 1024.692383,106.340889 
	C1024.670776,119.340813 1024.633301,132.341110 1024.721802,145.340485 
	C1024.739136,147.901855 1024.368164,149.658585 1020.789673,149.229156 
z"/>
<path fill="#45D9D0" opacity="1.000000" stroke="none" 
	d="
M14.081133,222.797791 
	C12.511245,215.983688 11.169891,209.498764 9.611792,201.965958 
	C48.202461,201.965958 85.169334,201.965958 122.136208,201.965958 
	C92.347893,212.408569 75.813728,232.957611 73.329437,264.492950 
	C51.759956,266.902832 24.160872,251.020950 14.081133,222.797791 
z"/>
<path fill="#05AC86" opacity="1.000000" stroke="none" 
	d="
M796.353699,30.629541 
	C798.735474,30.568987 800.676880,30.568987 802.838562,30.568987 
	C802.838562,37.234291 802.838562,43.311001 802.838562,49.897854 
	C790.348450,49.897854 778.104248,49.897854 765.339111,49.897854 
	C765.339111,83.137138 765.339111,115.871544 765.339111,148.917999 
	C758.583923,148.917999 752.361938,148.917999 745.660156,148.917999 
	C745.660156,146.850510 745.660217,145.068420 745.660156,143.286316 
	C745.659180,114.629295 745.662354,85.972275 745.654358,57.315254 
	C745.652344,50.021896 745.552429,49.934135 738.485413,49.933125 
	C728.195007,49.931648 717.904541,49.932739 707.407104,49.932739 
	C707.407104,43.586689 707.407104,37.798645 707.407104,30.690096 
	C736.869263,30.690096 766.391296,30.690096 796.353699,30.629541 
z"/>
<path fill="#15B798" opacity="1.000000" stroke="none" 
	d="
M217.216370,82.029770 
	C204.079636,77.741142 195.982635,69.637146 193.504227,55.963989 
	C189.821793,35.648117 203.580643,20.496420 220.414719,16.830034 
	C236.812164,13.258742 254.168030,25.409483 257.898102,42.175842 
	C261.757172,59.521999 251.031540,77.998085 234.318527,81.675720 
	C228.981964,82.850021 223.203232,82.014961 217.216370,82.029770 
z"/>
<path fill="#0FAE89" opacity="1.000000" stroke="none" 
	d="
M574.571777,199.714935 
	C583.502869,190.367111 593.640503,185.490631 606.482117,188.902695 
	C619.559937,192.377518 628.158020,205.379791 626.788513,219.510559 
	C625.481750,232.994400 614.113892,244.122910 600.908813,245.106644 
	C585.728394,246.237518 575.785461,240.177979 570.449646,225.833908 
	C568.379211,220.267990 567.817444,213.566193 571.303833,207.568146 
	C572.653931,205.245438 573.380188,202.560150 574.571777,199.714935 
M593.669800,236.148956 
	C601.824585,238.300385 608.533997,235.811798 613.347412,229.149246 
	C617.919861,222.820145 618.546570,216.029205 615.412354,208.455734 
	C612.099609,200.450562 602.601135,195.904480 595.476685,196.709427 
	C587.921082,197.563095 581.248657,202.882034 579.367981,210.953979 
	C576.905823,221.521759 581.306946,232.056229 593.669800,236.148956 
z"/>
<path fill="#0FAE89" opacity="1.000000" stroke="none" 
	d="
M526.987183,190.313721 
	C529.759155,189.421539 532.440063,188.992355 535.587158,188.488525 
	C535.587158,207.434418 535.587158,225.643219 535.587158,244.168915 
	C532.745422,244.168915 530.006592,244.168915 526.857788,244.168915 
	C526.857788,237.876556 526.775146,231.903900 526.889526,225.935028 
	C526.955688,222.480133 525.918396,220.798141 522.032654,220.937302 
	C514.598328,221.203568 507.147766,221.014679 499.266937,221.014679 
	C499.266937,228.980820 499.266937,236.413635 499.266937,244.119324 
	C496.084564,244.119324 493.351288,244.119324 490.432678,244.119324 
	C490.432678,225.828857 490.432678,207.903091 490.432678,189.287979 
	C492.953888,189.115768 495.673676,188.929993 498.944305,188.706604 
	C498.944305,196.352036 498.944305,203.598495 498.944305,211.952255 
	C507.829498,211.952255 516.225220,212.050186 524.609924,211.791443 
	C525.395081,211.767212 526.704590,209.515564 526.757080,208.255829 
	C526.999756,202.437637 526.883606,196.604507 526.987183,190.313721 
z"/>
<path fill="#10AF8A" opacity="1.000000" stroke="none" 
	d="
M929.132141,204.173706 
	C930.670288,200.963303 932.480591,198.247330 933.408508,195.257477 
	C935.048218,189.974121 937.611938,187.610458 942.410339,188.378418 
	C943.650696,188.576950 945.307434,189.572693 945.783325,190.642426 
	C953.606934,208.230911 961.272034,225.889954 968.985291,243.561981 
	C961.170410,245.911987 959.896790,245.030792 957.122131,237.639801 
	C955.623596,233.648087 953.557861,230.072708 947.769165,230.805344 
	C942.202393,231.509918 936.470825,231.113388 930.823364,230.896759 
	C927.903320,230.784760 926.089966,231.612228 925.266479,234.501907 
	C924.859375,235.930328 924.184814,237.287354 923.578979,238.653503 
	C920.623169,245.319016 920.467590,245.388702 912.575378,243.862808 
	C916.421936,234.754364 920.266785,225.690353 924.075928,216.611374 
	C925.756897,212.604828 927.365540,208.567917 929.132141,204.173706 
M933.867920,214.349716 
	C932.838928,216.715240 931.809937,219.080765 930.504395,222.081909 
	C937.518250,222.081909 943.691040,222.081909 950.496887,222.081909 
	C946.843201,214.517761 943.568237,207.737732 939.909241,200.162613 
	C937.669861,205.388245 935.903625,209.509720 933.867920,214.349716 
z"/>
<path fill="#0FAE89" opacity="1.000000" stroke="none" 
	d="
M740.106689,188.829132 
	C746.408386,188.907715 752.279297,188.516403 758.032837,189.165253 
	C767.975342,190.286499 774.049194,197.672379 773.944824,207.593887 
	C773.842346,217.336960 767.218262,224.661102 757.010803,225.905090 
	C752.903320,226.405670 748.710022,226.459427 744.567505,226.333130 
	C741.257629,226.232224 740.171936,227.496674 740.321472,230.697968 
	C740.522278,234.997757 740.371216,239.313965 740.371216,244.048340 
	C737.457458,244.048340 734.763672,244.048340 731.542908,244.048340 
	C731.466553,242.304489 731.324280,240.540695 731.322510,238.776764 
	C731.308594,224.810516 731.328186,210.844238 731.323425,196.877960 
	C731.320740,188.875305 731.308960,188.875305 740.106689,188.829132 
M746.666321,217.985260 
	C750.122803,217.722488 753.608154,217.655640 757.028870,217.150497 
	C762.021667,216.413239 764.383606,213.050400 764.712463,208.247009 
	C765.029785,203.612701 762.309875,199.360947 757.489197,198.391891 
	C752.665344,197.422211 747.616455,197.470230 742.660095,197.367996 
	C741.885010,197.352005 740.421265,198.885452 740.390991,199.741943 
	C740.187256,205.494385 740.284973,211.257507 740.284973,217.227783 
	C742.502686,217.509430 744.124390,217.715393 746.666321,217.985260 
z"/>
<path fill="#0FAE89" opacity="1.000000" stroke="none" 
	d="
M665.622192,191.596771 
	C675.427490,185.864716 687.541504,187.165939 696.417908,195.005508 
	C694.922058,197.212570 693.382019,199.484802 692.388855,200.950226 
	C686.419312,199.380280 681.143433,197.596802 675.720947,196.698944 
	C671.777039,196.045944 668.299622,198.006775 667.331787,202.158646 
	C666.329163,206.459778 669.488892,208.567871 672.940552,209.794632 
	C678.405884,211.737015 684.073730,213.125534 689.490906,215.182785 
	C695.339539,217.403915 698.387390,221.823761 698.425537,228.264053 
	C698.464966,234.924332 695.714294,239.955170 689.713379,242.736496 
	C686.921509,244.030487 683.574036,245.172272 680.631042,244.874542 
	C674.617371,244.266129 668.373901,243.460663 662.837708,241.221542 
	C655.789429,238.370911 655.809204,236.195450 660.836670,230.512054 
	C665.920288,232.559174 670.818909,234.917984 675.965149,236.439438 
	C678.497925,237.188248 681.869019,237.170044 684.160217,236.056946 
	C686.245483,235.043945 688.416565,232.177322 688.626099,229.947037 
	C688.808716,228.003433 686.776001,224.788513 684.898743,223.924637 
	C680.266785,221.793152 675.184509,220.611313 670.242371,219.189651 
	C662.090393,216.844620 657.304138,210.713425 657.967957,203.906769 
	C658.464294,198.817719 661.214294,194.837189 665.622192,191.596771 
z"/>
<path fill="#09AC87" opacity="1.000000" stroke="none" 
	d="
M1144.000000,221.305527 
	C1122.240234,221.305618 1100.980347,221.305618 1079.634033,221.305618 
	C1079.860352,218.093674 1080.039551,215.551575 1080.257812,212.455261 
	C1122.784424,212.455261 1165.420288,212.455261 1208.415283,212.455261 
	C1208.504395,213.855576 1208.652954,215.301651 1208.671753,216.749420 
	C1208.688721,218.045807 1208.562744,219.344070 1208.467773,221.305435 
	C1186.979004,221.305435 1165.739502,221.305435 1144.000000,221.305527 
z"/>
<path fill="#09AC87" opacity="1.000000" stroke="none" 
	d="
M399.999939,221.305527 
	C373.245636,221.305618 346.991364,221.305618 320.843842,221.305618 
	C319.145447,212.397491 319.516266,211.971436 327.863373,211.972107 
	C366.633575,211.975204 405.403809,211.959396 444.174011,211.950409 
	C445.631836,211.950073 447.089630,211.950363 448.824280,211.950363 
	C448.824280,215.148575 448.824280,217.884720 448.824280,221.305435 
	C432.641052,221.305435 416.570496,221.305435 399.999939,221.305527 
z"/>
<path fill="#0CAD88" opacity="1.000000" stroke="none" 
	d="
M870.000000,188.895569 
	C877.468323,188.895950 884.436707,188.895950 891.731323,188.895950 
	C891.731323,191.768784 891.731323,194.352814 891.731323,197.636444 
	C886.100342,197.636444 880.394592,197.636444 874.305542,197.636444 
	C874.305542,213.421707 874.305542,228.521912 874.305542,244.044693 
	C871.050598,244.044693 868.198608,244.044693 864.826721,244.044693 
	C864.826721,232.142258 864.809204,220.357910 864.831848,208.573654 
	C864.852722,197.726501 864.871704,197.726471 854.111938,197.724640 
	C852.161316,197.724304 850.210754,197.724594 848.088989,197.724594 
	C848.088989,194.602722 848.088989,192.148163 848.088989,188.895187 
	C855.308167,188.895187 862.404114,188.895187 870.000000,188.895569 
z"/>
<path fill="#10AF8A" opacity="1.000000" stroke="none" 
	d="
M1022.992737,244.489136 
	C1015.228760,244.488342 1007.963440,244.488342 1000.470215,244.488342 
	C1000.470215,225.781586 1000.470215,207.751755 1000.470215,189.282532 
	C1003.431763,189.282532 1006.155396,189.282532 1009.337097,189.282532 
	C1009.337097,202.437958 1009.334167,215.547226 1009.338196,228.656509 
	C1009.340515,236.054565 1009.345703,236.064087 1016.696655,236.077011 
	C1023.825500,236.089539 1030.954346,236.079712 1038.461792,236.079712 
	C1038.461792,238.848694 1038.461792,241.376434 1038.461792,244.489929 
	C1033.388184,244.489929 1028.439819,244.489929 1022.992737,244.489136 
z"/>
<path fill="#15B08B" opacity="1.000000" stroke="none" 
	d="
M815.055542,240.694351 
	C814.079163,242.265060 813.285706,243.980713 812.085815,244.340378 
	C810.272461,244.883942 808.175720,244.482239 805.768372,244.482239 
	C805.768372,225.983932 805.768372,207.800705 805.768372,189.084305 
	C808.546326,188.934174 811.436951,188.777954 815.056519,188.582336 
	C815.056519,206.134613 815.056519,223.183426 815.055542,240.694351 
z"/>
<path fill="#25C3AB" opacity="1.000000" stroke="none" 
	d="
M137.149567,96.302460 
	C137.941895,96.894066 138.683075,97.801628 139.164673,98.869003 
	C138.302887,98.225349 137.700653,97.421883 137.149567,96.302460 
z"/>
<path fill="#F7FCFB" opacity="1.000000" stroke="none" 
	d="
M882.633545,102.942192 
	C870.134888,102.967232 858.097351,102.967232 844.981506,102.967232 
	C852.210571,86.089302 858.734070,70.858643 865.819214,54.316780 
	C868.980835,61.376251 871.700684,67.405457 874.383240,73.451218 
	C877.070374,79.507004 879.706116,85.585579 882.393005,91.641457 
	C883.512634,94.164894 884.797607,96.618195 885.840698,99.171494 
	C886.893738,101.749359 885.705139,102.909653 882.633545,102.942192 
z"/>
<path fill="#F7FCFB" opacity="1.000000" stroke="none" 
	d="
M495.863831,67.298347 
	C499.496124,75.874214 503.024445,84.087723 506.615570,92.273697 
	C507.645966,94.622520 509.156708,96.808304 509.835632,99.239609 
	C510.098633,100.181526 508.684174,102.631660 508.005249,102.642799 
	C495.286957,102.851379 482.564301,102.796112 468.818451,102.796112 
	C475.958374,86.120972 482.524719,70.785324 489.281006,55.006195 
	C491.608643,59.272663 493.696228,63.099091 495.863831,67.298347 
z"/>
<path fill="#FAFEFD" opacity="1.000000" stroke="none" 
	d="
M593.279175,236.066650 
	C581.306946,232.056229 576.905823,221.521759 579.367981,210.953979 
	C581.248657,202.882034 587.921082,197.563095 595.476685,196.709427 
	C602.601135,195.904480 612.099609,200.450562 615.412354,208.455734 
	C618.546570,216.029205 617.919861,222.820145 613.347412,229.149246 
	C608.533997,235.811798 601.824585,238.300385 593.279175,236.066650 
z"/>
<path fill="#F3FCFA" opacity="1.000000" stroke="none" 
	d="
M934.002686,213.990448 
	C935.903625,209.509720 937.669861,205.388245 939.909241,200.162613 
	C943.568237,207.737732 946.843201,214.517761 950.496887,222.081909 
	C943.691040,222.081909 937.518250,222.081909 930.504395,222.081909 
	C931.809937,219.080765 932.838928,216.715240 934.002686,213.990448 
z"/>
<path fill="#F3FCFA" opacity="1.000000" stroke="none" 
	d="
M746.206177,217.953308 
	C744.124390,217.715393 742.502686,217.509430 740.284973,217.227783 
	C740.284973,211.257507 740.187256,205.494385 740.390991,199.741943 
	C740.421265,198.885452 741.885010,197.352005 742.660095,197.367996 
	C747.616455,197.470230 752.665344,197.422211 757.489197,198.391891 
	C762.309875,199.360947 765.029785,203.612701 764.712463,208.247009 
	C764.383606,213.050400 762.021667,216.413239 757.028870,217.150497 
	C753.608154,217.655640 750.122803,217.722488 746.206177,217.953308 
z"/>
</svg>