<svg version="1.1" id="Layer_1" xmlns="http://www.w3.org/2000/svg" xmlns:xlink="http://www.w3.org/1999/xlink" x="0px" y="0px"
	 width="100%" viewBox="0 0 7500 1659" enable-background="new 0 0 7500 1659" xml:space="preserve">
<path fill="#FFFFFF" opacity="1.000000" stroke="none" 
	d="
M5046.000000,1662.000000 
	C3364.000000,1662.000000 1683.000000,1662.000000 2.000000,1662.000000 
	C2.000000,1108.666626 2.000000,555.333313 2.000000,2.000000 
	C2502.000000,2.000000 5002.000000,2.000000 7502.000000,2.000000 
	C7502.000000,555.333313 7502.000000,1108.666626 7502.000000,1662.000000 
	C6683.666504,1662.000000 5865.333496,1662.000000 5046.000000,1662.000000 
M1450.294434,467.830200 
	C1448.432251,453.721283 1447.496460,439.415863 1444.552490,425.536377 
	C1429.324097,353.740204 1394.174316,293.317719 1339.690918,244.093719 
	C1308.501587,215.915115 1273.259644,194.393921 1233.975342,179.625931 
	C1223.176636,175.566437 1211.826660,172.973099 1199.565063,168.634552 
	C1179.008789,162.907959 1157.973999,159.695114 1136.765259,158.357895 
	C1108.858398,156.598343 1081.002686,158.198822 1053.209473,161.516068 
	C1014.730835,166.108704 977.323669,175.078293 941.058350,188.554092 
	C865.888794,216.486252 800.865173,259.702881 745.979004,318.317261 
	C696.807800,370.828522 660.415588,430.930206 636.782288,498.808258 
	C620.617615,545.235352 610.712769,593.019836 609.920959,642.161377 
	C608.943909,702.800903 609.678650,763.468140 609.718933,824.123413 
	C609.720581,826.650330 610.181091,829.176941 610.416687,831.589539 
	C722.611511,831.589539 834.085693,831.589539 945.588928,831.589539 
	C945.893677,830.052612 946.245422,829.107971 946.244873,828.163635 
	C946.210693,771.511169 946.147522,714.858643 947.144165,656.929626 
	C948.086426,632.343689 954.312805,609.244751 965.497925,587.262939 
	C999.646179,520.152527 1076.901245,481.087372 1153.120361,500.248260 
	C1212.980469,515.296692 1253.122192,552.962646 1273.893799,611.123169 
	C1279.982788,628.171997 1282.218994,645.906982 1282.369263,665.752197 
	C1282.369263,720.919617 1282.369263,776.087036 1282.369263,832.226013 
	C1287.004761,832.226013 1290.586548,832.226013 1294.168457,832.226013 
	C1346.113770,832.226013 1398.059204,832.171997 1450.004272,832.287781 
	C1457.277588,832.303955 1464.596680,832.773682 1471.813599,833.678894 
	C1513.419312,838.897766 1548.342773,857.130371 1576.049438,888.596985 
	C1612.370361,929.846802 1626.061890,977.799561 1615.788208,1031.826660 
	C1607.328491,1076.315186 1583.478271,1111.383179 1546.664307,1137.550415 
	C1525.451660,1152.628296 1501.600464,1161.523926 1474.366211,1166.030273 
	C1467.429565,1166.562256 1460.494263,1167.537476 1453.556152,1167.555664 
	C1400.558960,1167.694702 1347.561279,1167.638062 1294.563721,1167.677246 
	C1290.693726,1167.680054 1286.823853,1167.957886 1282.895508,1168.110229 
	C1282.895508,1280.979492 1282.895508,1392.792969 1282.895508,1505.106567 
	C1286.072388,1505.319336 1288.662720,1505.660400 1291.250366,1505.641602 
	C1353.860596,1505.185913 1416.471680,1504.783813 1479.080566,1504.163452 
	C1508.125366,1503.875732 1536.613281,1498.930908 1564.815918,1492.452026 
	C1608.489380,1482.418945 1650.056885,1466.742798 1689.531982,1445.425781 
	C1724.851685,1426.352783 1757.657715,1403.707275 1787.494629,1376.914307 
	C1823.610596,1344.482666 1854.723755,1307.759888 1880.455688,1266.507324 
	C1924.248901,1196.298706 1949.210449,1119.829834 1955.454224,1037.483032 
	C1957.512939,1010.332581 1958.071899,982.888245 1953.816528,955.762878 
	C1951.825317,943.070312 1948.704346,930.554932 1946.036743,916.379456 
	C1945.896729,915.391052 1945.861938,914.374023 1945.601807,913.418274 
	C1928.139771,849.240723 1895.033447,794.652100 1845.594604,750.026184 
	C1779.966553,690.787292 1702.407593,662.869690 1614.584351,662.275574 
	C1560.341919,661.908630 1506.095825,662.103333 1451.708496,660.169678 
	C1451.699219,601.072632 1451.698242,541.975586 1451.661011,482.878510 
	C1451.658813,479.239655 1451.370117,475.601013 1451.432007,471.020355 
	C1451.241577,470.352814 1450.828125,469.880341 1450.294434,467.830200 
M3964.000977,804.995911 
	C3964.884277,805.993042 3965.830811,806.941528 3966.641357,807.994507 
	C3987.333252,834.869202 4008.147461,861.651489 4028.589844,888.714600 
	C4033.444092,895.140991 4038.770996,897.785339 4046.993896,897.582214 
	C4070.308838,897.006226 4093.646973,897.397888 4116.976074,897.360413 
	C4120.219238,897.355164 4123.462402,897.079102 4126.541992,896.936096 
	C4128.543457,884.866821 4128.067383,279.068176 4126.173828,272.072388 
	C4108.840332,270.095001 4025.751221,270.938721 4018.927734,273.161377 
	C4018.796631,273.456573 4018.599854,273.740845 4018.548584,274.049286 
	C4018.439209,274.704620 4018.348633,275.372528 4018.348633,276.035278 
	C4018.328369,414.009521 4018.316895,551.983765 4018.304443,689.958008 
	C4018.304199,691.957520 4018.307129,693.957397 4018.270508,695.956421 
	C4018.258545,696.616882 4018.162109,697.282043 4018.033936,697.931091 
	C4017.980469,698.202637 4017.797119,698.510742 4017.577148,698.670715 
	C4017.320068,698.857483 4016.958740,698.900757 4016.305664,699.118652 
	C4015.360596,697.972900 4014.298828,696.755981 4013.312988,695.480530 
	C3978.122314,649.954468 3942.943848,604.419189 3907.754150,558.892578 
	C3865.055664,503.651886 3822.343750,448.421631 3779.647461,393.179230 
	C3749.948486,354.753540 3720.243164,316.332642 3690.608398,277.857422 
	C3687.430176,273.730865 3684.257568,271.121216 3678.344971,271.194946 
	C3648.688477,271.564545 3619.024902,271.343994 3589.363770,271.411102 
	C3587.193359,271.416016 3585.024414,272.056702 3582.958984,272.385223 
	C3582.958984,480.879089 3582.958984,688.655579 3582.958984,896.875366 
	C3619.452637,896.875366 3655.291504,896.875366 3692.199707,896.875366 
	C3692.199707,750.004150 3692.199707,603.632324 3692.199707,457.260468 
	C3692.943604,456.960266 3693.687256,456.660065 3694.431152,456.359863 
	C3784.172852,572.062622 3873.612793,688.000366 3964.000977,804.995911 
M6459.028320,271.069641 
	C6449.772949,271.069641 6440.517578,271.069641 6431.009766,271.069641 
	C6431.009766,480.353363 6431.009766,688.439758 6431.009766,896.429260 
	C6445.417480,898.380676 6890.125488,897.732910 6897.185059,895.819824 
	C6897.185059,863.307251 6897.185059,830.769775 6897.185059,797.069336 
	C6867.096680,797.069336 6837.505859,797.069336 6807.915527,797.069336 
	C6778.249023,797.069336 6748.583008,797.069336 6718.916504,797.069336 
	C6688.916992,797.069336 6658.917480,797.105896 6628.917969,797.058960 
	C6599.430176,797.012878 6569.935547,797.273193 6540.406250,796.886230 
	C6540.406250,741.010315 6540.406250,686.538025 6540.406250,631.136597 
	C6644.964355,631.136597 6748.817871,631.136597 6852.994141,631.136597 
	C6852.994141,597.462708 6852.994141,564.727417 6852.994141,530.965698 
	C6748.459473,530.965698 6644.623047,530.965698 6540.246094,530.965698 
	C6540.246094,477.451355 6540.246094,424.968597 6540.246094,371.198059 
	C6658.171387,371.198059 6775.595703,371.198059 6893.226562,371.198059 
	C6893.226562,337.367706 6893.226562,304.826721 6893.226562,271.070831 
	C6748.844727,271.070831 6604.931152,271.070831 6459.028320,271.069641 
M2906.304443,897.377319 
	C2909.255127,897.377319 2912.206055,897.377319 2915.697266,897.377319 
	C2937.338135,846.669617 2958.822754,796.328125 2980.093994,746.486694 
	C3078.860840,746.486694 3176.430176,746.486694 3274.672363,746.486694 
	C3295.834229,796.744019 3316.959229,846.913696 3337.899170,896.643677 
	C3360.706055,898.906311 3447.452637,897.892029 3454.606201,895.108337 
	C3363.198730,685.897949 3271.804688,476.717499 3180.492920,267.725861 
	C3145.559570,267.725861 3111.634521,267.725861 3076.943115,267.725861 
	C2985.449951,477.140045 2893.966064,686.532715 2801.848389,897.376831 
	C2837.319092,897.376831 2870.885010,897.376831 2906.304443,897.377319 
M5034.772949,301.708099 
	C5032.022949,308.120453 5029.312988,314.550446 5026.517090,320.942566 
	C4997.737305,386.733887 4968.911621,452.505096 4940.161621,518.309570 
	C4908.753418,590.197937 4877.426758,662.122192 4846.033691,734.017029 
	C4823.816895,784.896240 4801.540527,835.749390 4779.322754,886.628418 
	C4777.945801,889.783020 4776.855469,893.062866 4775.596680,896.376404 
	C4777.570801,896.924500 4778.206543,897.254944 4778.843262,897.255920 
	C4813.500488,897.312134 4848.159180,897.200684 4882.813965,897.507446 
	C4888.701172,897.559570 4889.998047,893.981567 4891.709473,889.945984 
	C4903.905273,861.186646 4916.102051,832.427795 4928.361816,803.695557 
	C4936.549316,784.507690 4944.840332,765.364075 4952.906738,746.616333 
	C5051.712402,746.616333 5149.567871,746.616333 5247.540039,746.616333 
	C5268.707031,796.942139 5289.705078,846.866333 5310.578125,896.493530 
	C5328.371582,898.804993 5421.106934,897.832336 5427.445801,895.240540 
	C5336.041016,686.028259 5244.639160,476.823029 5153.396484,267.981689 
	C5118.179688,267.981689 5083.995117,267.981689 5049.681641,267.981689 
	C5044.796387,279.076935 5040.115723,289.708374 5034.772949,301.708099 
M2681.884521,611.153870 
	C2673.420166,603.682007 2665.369873,595.666687 2656.410645,588.845032 
	C2633.886963,571.695435 2608.084229,560.678894 2581.327637,552.436707 
	C2547.664551,542.067078 2513.500977,533.328308 2479.602539,523.713440 
	C2455.617188,516.910278 2431.361084,510.560333 2409.610840,497.937775 
	C2400.519287,492.661743 2391.197754,486.604340 2384.381104,478.804382 
	C2362.775879,454.082123 2364.882812,414.576416 2387.816895,390.402618 
	C2397.640381,380.048065 2409.225586,372.449158 2422.755859,368.015594 
	C2441.884521,361.747589 2461.420410,359.739319 2481.617188,361.119110 
	C2498.307373,362.259338 2514.646729,364.553436 2530.716309,369.018311 
	C2568.717285,379.576416 2602.440186,398.699890 2634.604736,420.944458 
	C2636.435303,422.210541 2638.422363,423.250549 2640.895508,424.730011 
	C2660.766113,396.704742 2680.312012,369.137054 2700.001709,341.366577 
	C2697.622559,339.343292 2695.920410,337.755524 2694.078857,336.350403 
	C2658.570312,309.257721 2619.903076,288.209839 2576.765625,276.050934 
	C2536.118408,264.593933 2494.723389,260.580902 2452.478271,263.149353 
	C2421.894531,265.008789 2392.566895,271.277222 2364.693359,283.761261 
	C2330.700928,298.985809 2303.569824,322.232300 2284.059814,354.254303 
	C2267.696289,381.112579 2260.268555,410.368469 2259.735840,441.522797 
	C2259.341797,464.564789 2261.716064,487.287018 2269.566895,509.160980 
	C2284.446289,550.617798 2314.901123,577.225159 2353.270752,595.856323 
	C2379.091553,608.394226 2406.543213,616.610596 2434.193359,624.056091 
	C2464.338867,632.173401 2494.655029,639.685791 2524.653564,648.308105 
	C2544.159424,653.914490 2562.852783,661.784912 2580.252197,672.583313 
	C2615.802246,694.646545 2615.757080,742.210388 2597.820312,767.678650 
	C2586.159668,784.235352 2569.769775,793.888977 2551.054688,800.023193 
	C2521.918457,809.573120 2492.022705,808.708008 2462.151367,805.160889 
	C2424.888916,800.736145 2390.492676,787.748169 2359.113281,767.379089 
	C2339.645264,754.742004 2321.026855,740.795776 2301.166504,726.832214 
	C2279.699219,752.382568 2257.591064,778.695801 2235.300293,805.226013 
	C2239.767578,809.166931 2243.435791,812.499023 2247.204834,815.713257 
	C2283.579102,846.733093 2324.374268,870.105835 2369.635254,885.408203 
	C2403.480957,896.851074 2438.411621,903.566833 2474.085449,905.157837 
	C2492.315918,905.970764 2510.695557,905.214783 2528.923340,903.950867 
	C2566.200439,901.366089 2601.673828,891.885010 2634.068115,872.764465 
	C2673.335693,849.586853 2699.920410,816.242493 2712.182617,772.125610 
	C2718.806152,748.295227 2720.663330,724.046021 2718.541748,699.208740 
	C2715.725098,666.233948 2704.575195,637.191650 2681.884521,611.153870 
M6025.000000,371.375153 
	C6112.535645,371.375153 6200.070801,371.375153 6287.774414,371.375153 
	C6287.774414,337.495575 6287.774414,304.967041 6287.774414,272.533325 
	C6274.930176,270.372101 5831.133789,270.963257 5824.334961,273.027710 
	C5824.334961,480.855072 5824.334961,688.650208 5824.334961,896.762268 
	C5860.472656,896.762268 5895.958496,896.762268 5932.560547,896.762268 
	C5932.560547,811.698486 5932.560547,727.240173 5932.560547,641.729614 
	C6038.119141,641.729614 6142.563477,641.729614 6247.169922,641.729614 
	C6247.169922,608.153748 6247.169922,575.644470 6247.169922,542.079346 
	C6142.207520,542.079346 6037.760254,542.079346 5932.835938,542.079346 
	C5932.835938,484.877441 5932.835938,428.735321 5932.835938,371.374603 
	C5963.227539,371.374603 5993.113770,371.374603 6025.000000,371.375153 
M636.292236,1300.623047 
	C638.905151,1306.377319 641.262512,1312.264282 644.172119,1317.864502 
	C663.977722,1355.984863 689.004272,1390.007935 721.252319,1418.774536 
	C749.877441,1444.309692 781.675232,1464.471436 816.845459,1479.501831 
	C854.882019,1495.757080 894.850769,1503.280884 935.935364,1505.674805 
	C939.117493,1505.860352 942.319824,1505.699341 946.556396,1505.699341 
	C948.331543,1414.728027 979.255798,1336.500122 1041.610962,1271.985596 
	C1103.747192,1207.697754 1180.286621,1173.605469 1271.488159,1168.824951 
	C1246.826538,1166.467407 618.396545,1167.089600 609.793823,1169.507935 
	C608.831116,1214.562378 618.438782,1257.624268 636.292236,1300.623047 
M4772.314941,311.000732 
	C4772.314941,298.103363 4772.314941,285.206024 4772.314941,272.514374 
	C4758.039551,270.353729 4272.064453,270.995605 4264.981445,273.023834 
	C4264.981445,306.482269 4264.981445,339.954590 4264.981445,374.232452 
	C4330.844238,374.232452 4396.039062,374.232452 4462.404297,374.232452 
	C4462.404297,548.776489 4462.404297,722.511841 4462.404297,896.027893 
	C4474.671387,898.251587 4566.813965,897.797791 4574.531250,895.449463 
	C4574.531250,722.184082 4574.531250,548.667114 4574.531250,373.987732 
	C4640.770508,373.987732 4706.202148,373.987732 4772.314941,373.987732 
	C4772.314941,352.886536 4772.314941,332.943420 4772.314941,311.000732 
M1578.419922,440.388336 
	C1587.543701,462.522217 1600.398804,482.367432 1617.670898,498.803955 
	C1659.458130,538.569763 1709.441040,555.416138 1766.606201,547.372375 
	C1817.273071,540.242981 1857.555298,514.687439 1886.583618,472.525726 
	C1909.550293,439.168213 1919.131104,402.010742 1916.476440,361.342102 
	C1913.238403,311.734650 1892.381104,270.916687 1855.138428,239.129501 
	C1814.805054,204.704422 1767.362061,191.922409 1714.745728,199.611465 
	C1672.243896,205.822449 1636.429443,224.960342 1608.794189,257.818756 
	C1563.262939,311.955414 1554.217896,372.772583 1578.419922,440.388336 
M3641.440918,1104.247925 
	C3638.368896,1105.512939 3635.276855,1106.731812 3632.228027,1108.050659 
	C3603.711670,1120.385620 3580.327148,1138.884521 3563.692139,1165.397949 
	C3543.053467,1198.291992 3535.803955,1234.064209 3541.757568,1272.326294 
	C3549.599609,1322.724854 3575.961670,1360.294556 3621.274170,1384.031372 
	C3646.378174,1397.182129 3673.463623,1401.322510 3701.560791,1400.111694 
	C3747.812256,1398.118774 3785.885254,1379.207642 3814.691895,1343.268311 
	C3840.809814,1310.683472 3850.999023,1272.937622 3846.350586,1231.270020 
	C3840.086914,1175.124756 3811.762207,1134.127808 3760.788574,1110.124268 
	C3722.781006,1092.226196 3683.000000,1091.763550 3641.440918,1104.247925 
M3126.301270,1175.000000 
	C3126.301270,1248.180176 3126.301270,1321.360352 3126.301270,1394.832520 
	C3144.243408,1394.832520 3160.757812,1394.832520 3178.418213,1394.832520 
	C3178.418213,1353.834595 3178.418213,1313.369507 3178.418213,1273.078125 
	C3193.337891,1271.128662 3311.003174,1271.734863 3318.638672,1273.857788 
	C3318.638672,1313.852661 3318.638672,1354.070801 3318.638672,1394.135986 
	C3329.575684,1396.073364 3362.469238,1395.802979 3369.886475,1393.801147 
	C3369.886475,1296.615845 3369.886475,1199.370605 3369.886475,1101.764160 
	C3352.616455,1101.764160 3335.788086,1101.764160 3318.038574,1101.764160 
	C3318.038574,1142.329712 3318.038574,1182.207886 3318.038574,1222.546875 
	C3271.260498,1222.546875 3225.412598,1222.546875 3178.226807,1222.546875 
	C3178.226807,1181.966797 3178.226807,1141.884521 3178.226807,1101.667480 
	C3160.343994,1101.667480 3143.805908,1101.667480 3126.301270,1101.667480 
	C3126.301270,1125.835815 3126.301270,1149.417847 3126.301270,1175.000000 
M5583.644043,1257.273682 
	C5573.388672,1233.837891 5563.128906,1210.403931 5552.879395,1186.965454 
	C5541.029297,1159.865601 5529.163086,1132.772705 5517.373047,1105.646606 
	C5515.715332,1101.833130 5514.264160,1098.770142 5508.965332,1098.940796 
	C5496.321777,1099.347656 5483.652344,1099.245117 5471.000977,1098.979858 
	C5466.476562,1098.885010 5464.675293,1101.006958 5463.049316,1104.786133 
	C5453.592285,1126.760254 5443.881348,1148.625244 5434.300293,1170.546265 
	C5407.821289,1231.129883 5381.353516,1291.718384 5354.906250,1352.316040 
	C5348.840820,1366.214111 5342.877930,1380.156982 5336.303711,1395.385986 
	C5352.956055,1395.385986 5368.185059,1395.085083 5383.391602,1395.538452 
	C5389.225586,1395.712524 5391.648926,1393.138550 5393.562012,1388.320068 
	C5397.726562,1377.830811 5402.184570,1367.456543 5406.624512,1357.078613 
	C5411.302734,1346.142822 5416.097656,1335.257080 5420.702148,1324.669922 
	C5467.033691,1324.669922 5512.527832,1324.669922 5558.172852,1324.669922 
	C5567.114746,1345.898804 5576.108398,1366.606689 5584.487305,1387.560303 
	C5586.817383,1393.386719 5589.696777,1395.795410 5596.095215,1395.529785 
	C5608.065430,1395.032837 5620.070801,1395.386963 5632.061523,1395.387085 
	C5635.552734,1395.387085 5639.044434,1395.387085 5643.816406,1395.387085 
	C5623.458984,1348.714844 5603.826172,1303.704224 5583.644043,1257.273682 
M6663.000000,1222.084229 
	C6514.856445,1222.084229 6366.712402,1222.084229 6218.385254,1222.084229 
	C6218.385254,1239.965942 6218.385254,1256.717773 6218.385254,1273.343018 
	C6445.077637,1273.343018 6671.068848,1273.343018 6897.142578,1273.343018 
	C6897.142578,1256.083008 6897.142578,1239.575684 6897.142578,1222.084229 
	C6819.398438,1222.084229 6742.199219,1222.084229 6663.000000,1222.084229 
M2731.000000,1274.089355 
	C2792.526367,1274.089355 2854.052734,1274.089355 2916.314453,1274.089355 
	C2916.314453,1264.607910 2916.333740,1256.334961 2916.309326,1248.061890 
	C2916.284180,1239.568237 2916.216064,1231.074585 2916.167480,1222.707520 
	C2688.637939,1222.707520 2462.531738,1222.707520 2235.685547,1222.707520 
	C2235.685547,1231.593872 2235.651123,1239.873047 2235.695068,1248.151611 
	C2235.740234,1256.646851 2235.862305,1265.141724 2235.955322,1274.089355 
	C2401.158447,1274.089355 2565.079102,1274.089355 2731.000000,1274.089355 
M4391.676270,1339.000000 
	C4391.676270,1357.519531 4391.676270,1376.039062 4391.676270,1394.829346 
	C4409.586914,1394.829346 4426.089355,1394.829346 4443.861328,1394.829346 
	C4443.861328,1363.538208 4443.861328,1332.775513 4443.861328,1301.387695 
	C4462.750000,1301.387695 4480.371582,1301.332397 4497.992676,1301.404297 
	C4513.699707,1301.468506 4529.232910,1299.848022 4544.313477,1295.522949 
	C4575.622559,1286.543335 4600.177246,1269.170654 4612.571777,1237.842651 
	C4618.635742,1222.516602 4619.576172,1206.466064 4618.433105,1190.049316 
	C4616.056152,1155.904419 4599.537598,1131.062500 4569.861816,1114.881470 
	C4551.673828,1104.964233 4531.705078,1101.281006 4511.183594,1101.136841 
	C4474.863281,1100.881836 4438.539062,1101.065186 4402.216797,1101.065186 
	C4398.966797,1101.065186 4395.717285,1101.065186 4391.675781,1101.065186 
	C4391.675781,1180.467651 4391.675781,1258.733887 4391.676270,1339.000000 
M4205.944824,1261.110352 
	C4195.094238,1249.325195 4181.766602,1241.158203 4166.759277,1236.176880 
	C4149.105957,1230.317139 4131.125977,1225.438477 4113.269043,1220.197510 
	C4098.612793,1215.896118 4083.544434,1212.663086 4070.983887,1203.148926 
	C4058.992432,1194.065918 4055.447754,1176.722534 4063.134521,1163.828735 
	C4071.047607,1150.555420 4083.818359,1145.502808 4098.279785,1144.183960 
	C4121.601074,1142.057251 4143.072754,1148.465698 4163.211914,1159.780029 
	C4170.958496,1164.132324 4178.383789,1169.056763 4186.295898,1173.929810 
	C4195.785645,1160.440186 4204.887695,1147.502319 4214.425781,1133.944580 
	C4208.427246,1129.732056 4203.448242,1125.883667 4198.139160,1122.563721 
	C4157.975586,1097.448364 4114.623047,1090.049927 4068.995361,1102.471680 
	C4038.403564,1110.799927 4017.430176,1130.711548 4009.274414,1162.338867 
	C4005.735107,1176.064453 4006.279297,1189.954224 4008.877197,1203.723877 
	C4011.478271,1217.511719 4018.150146,1229.094971 4028.430420,1238.833374 
	C4038.072266,1247.966919 4049.261719,1254.525024 4061.644531,1258.452881 
	C4083.474365,1265.377319 4105.749023,1270.895996 4127.600586,1277.757080 
	C4137.658691,1280.914917 4147.652344,1284.988159 4156.784668,1290.205200 
	C4168.178223,1296.714233 4172.188965,1307.450073 4170.476562,1320.672974 
	C4168.606934,1335.109741 4159.328613,1342.896729 4147.109375,1347.956421 
	C4131.521484,1354.410889 4115.224121,1353.612549 4098.956543,1351.193481 
	C4075.551514,1347.712769 4055.607666,1336.723877 4037.221436,1322.413086 
	C4033.913330,1319.838501 4030.455322,1317.456909 4026.664062,1314.692749 
	C4015.851074,1327.560913 4005.649414,1339.701904 3994.769287,1352.650269 
	C4003.826416,1359.401001 4011.681885,1366.069702 4020.299072,1371.538940 
	C4058.063477,1395.508545 4099.425293,1403.611816 4143.504883,1397.684448 
	C4164.003906,1394.927734 4182.502441,1387.099609 4198.168457,1373.056396 
	C4226.582031,1347.585571 4233.173828,1292.500488 4205.944824,1261.110352 
M5091.686523,1165.186768 
	C5091.818359,1241.153809 5091.949219,1317.120972 5092.094727,1393.088013 
	C5092.095703,1393.403564 5092.232422,1393.767334 5092.422363,1394.020508 
	C5092.612305,1394.273438 5092.949707,1394.415894 5093.290039,1394.654297 
	C5110.037109,1394.654297 5126.842773,1394.654297 5144.313477,1394.654297 
	C5144.313477,1380.310791 5144.313477,1366.675903 5144.313477,1353.041016 
	C5144.313477,1339.710571 5144.313477,1326.380127 5144.313477,1313.049683 
	C5144.313477,1299.385986 5144.313477,1285.722290 5144.313477,1272.058594 
	C5144.313477,1258.394897 5144.313477,1244.731079 5144.313477,1231.067383 
	C5144.313477,1217.736938 5144.267090,1204.406250 5144.326660,1191.076050 
	C5144.387695,1177.560791 5144.051270,1164.026733 5144.577637,1150.089600 
	C5156.186523,1150.089600 5166.500488,1150.089600 5176.814453,1150.089600 
	C5186.812500,1150.089600 5196.810547,1150.141602 5206.808105,1150.075073 
	C5216.966797,1150.007568 5227.154785,1150.371582 5237.689941,1149.831421 
	C5237.689941,1140.782593 5237.733398,1133.143311 5237.677246,1125.505005 
	C5237.619629,1117.669189 5237.464844,1109.834229 5237.352539,1101.990967 
	C5157.592773,1101.990967 5079.104492,1101.990967 5000.171875,1101.990967 
	C5000.171875,1118.099609 5000.171875,1133.585449 5000.171875,1150.253662 
	C5030.734863,1150.253662 5060.838379,1150.253662 5091.686035,1150.253662 
	C5091.686035,1155.356201 5091.686035,1159.300903 5091.686523,1165.186768 
M5809.526367,1395.394531 
	C5874.745117,1395.394531 5939.964355,1395.394531 6005.752930,1395.394531 
	C6005.752930,1379.245728 6005.752930,1364.138672 6005.752930,1347.853394 
	C5954.512695,1347.853394 5903.768555,1347.853394 5852.260742,1347.853394 
	C5852.260742,1265.162354 5852.260742,1183.643921 5852.260742,1101.739014 
	C5834.655762,1101.739014 5817.835938,1101.739014 5800.678223,1101.739014 
	C5800.678223,1199.610718 5800.678223,1296.798706 5800.678223,1394.500000 
	C5803.217773,1394.824341 5805.443848,1395.108643 5809.526367,1395.394531 
M4781.686035,1321.000000 
	C4781.686035,1345.517700 4781.686035,1370.035522 4781.686035,1394.713745 
	C4799.938477,1394.713745 4816.764160,1394.713745 4833.785156,1394.713745 
	C4833.785156,1296.857910 4833.785156,1199.662964 4833.785156,1101.918945 
	C4816.458008,1101.918945 4799.657715,1101.918945 4781.686035,1101.918945 
	C4781.686035,1174.556396 4781.686035,1246.778198 4781.686035,1321.000000 
z"/>
<path fill="#4CC1B7" opacity="1.000000" stroke="none" 
	d="
M1946.095459,917.959229 
	C1948.704346,930.554932 1951.825317,943.070312 1953.816528,955.762878 
	C1958.071899,982.888245 1957.512939,1010.332581 1955.454224,1037.483032 
	C1949.210449,1119.829834 1924.248901,1196.298706 1880.455688,1266.507324 
	C1854.723755,1307.759888 1823.610596,1344.482666 1787.494629,1376.914307 
	C1757.657715,1403.707275 1724.851685,1426.352783 1689.531982,1445.425781 
	C1650.056885,1466.742798 1608.489380,1482.418945 1564.815918,1492.452026 
	C1536.613281,1498.930908 1508.125366,1503.875732 1479.080566,1504.163452 
	C1416.471680,1504.783813 1353.860596,1505.185913 1291.250366,1505.641602 
	C1288.662720,1505.660400 1286.072388,1505.319336 1282.895508,1505.106567 
	C1282.895508,1392.792969 1282.895508,1280.979492 1282.895508,1168.110229 
	C1286.823853,1167.957886 1290.693726,1167.680054 1294.563721,1167.677246 
	C1347.561279,1167.638062 1400.558960,1167.694702 1453.556152,1167.555664 
	C1460.494263,1167.537476 1467.429565,1166.562256 1475.821777,1166.664429 
	C1480.908203,1167.532715 1484.538696,1167.967407 1488.169800,1167.970825 
	C1535.490356,1168.016235 1582.811401,1168.132324 1630.130859,1167.901001 
	C1641.045532,1167.847656 1652.100952,1167.435181 1662.836426,1165.651855 
	C1688.655396,1161.362915 1714.163818,1155.866943 1738.739990,1146.222900 
	C1780.726318,1129.746948 1818.317139,1106.371826 1851.048462,1075.559814 
	C1864.049683,1063.320923 1876.035034,1049.719727 1886.847656,1035.495728 
	C1912.183350,1002.165588 1931.313599,965.468384 1942.708740,924.964233 
	C1943.400146,922.506165 1944.946655,920.288635 1946.095459,917.959229 
z"/>
<path fill="#1AAE86" opacity="1.000000" stroke="none" 
	d="
M946.087158,658.206177 
	C946.147522,714.858643 946.210693,771.511169 946.244873,828.163635 
	C946.245422,829.107971 945.893677,830.052612 945.588928,831.589539 
	C834.085693,831.589539 722.611511,831.589539 610.416687,831.589539 
	C610.181091,829.176941 609.720581,826.650330 609.718933,824.123413 
	C609.678650,763.468140 608.943909,702.800903 609.920959,642.161377 
	C610.712769,593.019836 620.617615,545.235352 636.782288,498.808258 
	C660.415588,430.930206 696.807800,370.828522 745.979004,318.317261 
	C800.865173,259.702881 865.888794,216.486252 941.058350,188.554092 
	C977.323669,175.078293 1014.730835,166.108704 1053.209473,161.516068 
	C1081.002686,158.198822 1108.858398,156.598343 1136.765259,158.357895 
	C1157.973999,159.695114 1179.008789,162.907959 1199.263184,169.258240 
	C1195.062500,170.564209 1191.061279,170.892944 1187.281494,171.986908 
	C1164.841309,178.481598 1143.387451,187.423630 1122.854736,198.558807 
	C1101.780396,209.987762 1081.759155,223.188492 1064.114624,239.309875 
	C1048.930176,253.183609 1034.991943,268.510040 1021.298096,283.901825 
	C1006.909119,300.074951 995.480347,318.470428 985.322693,337.547882 
	C972.944824,360.795349 963.550781,385.286896 956.765442,410.734009 
	C950.605408,433.835876 946.656860,457.513580 946.302368,481.267975 
	C945.422424,540.235291 946.059387,599.225281 946.087158,658.206177 
z"/>
<path fill="#686868" opacity="1.000000" stroke="none" 
	d="
M3963.627930,804.388428 
	C3873.612793,688.000366 3784.172852,572.062622 3694.431152,456.359863 
	C3693.687256,456.660065 3692.943604,456.960266 3692.199707,457.260468 
	C3692.199707,603.632324 3692.199707,750.004150 3692.199707,896.875366 
	C3655.291504,896.875366 3619.452637,896.875366 3582.958984,896.875366 
	C3582.958984,688.655579 3582.958984,480.879089 3582.958984,272.385223 
	C3585.024414,272.056702 3587.193359,271.416016 3589.363770,271.411102 
	C3619.024902,271.343994 3648.688477,271.564545 3678.344971,271.194946 
	C3684.257568,271.121216 3687.430176,273.730865 3690.608398,277.857422 
	C3720.243164,316.332642 3749.948486,354.753540 3779.647461,393.179230 
	C3822.343750,448.421631 3865.055664,503.651886 3907.754150,558.892578 
	C3942.943848,604.419189 3978.122314,649.954468 4013.312988,695.480530 
	C4014.298828,696.755981 4015.360596,697.972900 4016.305664,699.118652 
	C4016.958740,698.900757 4017.320068,698.857483 4017.577148,698.670715 
	C4017.797119,698.510742 4017.980469,698.202637 4018.033936,697.931091 
	C4018.162109,697.282043 4018.258545,696.616882 4018.270508,695.956421 
	C4018.307129,693.957397 4018.304199,691.957520 4018.304443,689.958008 
	C4018.316895,551.983765 4018.328369,414.009521 4018.348633,276.035278 
	C4018.348633,275.372528 4018.439209,274.704620 4018.548584,274.049286 
	C4018.599854,273.740845 4018.796631,273.456573 4018.927734,273.161377 
	C4025.751221,270.938721 4108.840332,270.095001 4126.173828,272.072388 
	C4128.067383,279.068176 4128.543457,884.866821 4126.541992,896.936096 
	C4123.462402,897.079102 4120.219238,897.355164 4116.976074,897.360413 
	C4093.646973,897.397888 4070.308838,897.006226 4046.993896,897.582214 
	C4038.770996,897.785339 4033.444092,895.140991 4028.589844,888.714600 
	C4008.147461,861.651489 3987.333252,834.869202 3966.641357,807.994507 
	C3965.830811,806.941528 3964.884277,805.993042 3963.627930,804.388428 
z"/>
<path fill="#2EBDA8" opacity="1.000000" stroke="none" 
	d="
M1946.066040,917.169312 
	C1944.946655,920.288635 1943.400146,922.506165 1942.708740,924.964233 
	C1931.313599,965.468384 1912.183350,1002.165588 1886.847656,1035.495728 
	C1876.035034,1049.719727 1864.049683,1063.320923 1851.048462,1075.559814 
	C1818.317139,1106.371826 1780.726318,1129.746948 1738.739990,1146.222900 
	C1714.163818,1155.866943 1688.655396,1161.362915 1662.836426,1165.651855 
	C1652.100952,1167.435181 1641.045532,1167.847656 1630.130859,1167.901001 
	C1582.811401,1168.132324 1535.490356,1168.016235 1488.169800,1167.970825 
	C1484.538696,1167.967407 1480.908203,1167.532715 1476.682129,1166.727417 
	C1501.600464,1161.523926 1525.451660,1152.628296 1546.664307,1137.550415 
	C1583.478271,1111.383179 1607.328491,1076.315186 1615.788208,1031.826660 
	C1626.061890,977.799561 1612.370361,929.846802 1576.049438,888.596985 
	C1548.342773,857.130371 1513.419312,838.897766 1471.813599,833.678894 
	C1464.596680,832.773682 1457.277588,832.303955 1450.004272,832.287781 
	C1398.059204,832.171997 1346.113770,832.226013 1294.168457,832.226013 
	C1290.586548,832.226013 1287.004761,832.226013 1282.369263,832.226013 
	C1282.369263,776.087036 1282.369263,720.919617 1283.453613,664.835693 
	C1336.769653,663.938416 1389.001221,663.995056 1441.232544,663.893555 
	C1444.773315,663.886719 1448.311768,662.689575 1451.851318,662.046021 
	C1506.095825,662.103333 1560.341919,661.908630 1614.584351,662.275574 
	C1702.407593,662.869690 1779.966553,690.787292 1845.594604,750.026184 
	C1895.033447,794.652100 1928.139771,849.240723 1945.601807,913.418274 
	C1945.861938,914.374023 1945.896729,915.391052 1946.066040,917.169312 
z"/>
<path fill="#686969" opacity="1.000000" stroke="none" 
	d="
M6460.022949,271.070251 
	C6604.931152,271.070831 6748.844727,271.070831 6893.226562,271.070831 
	C6893.226562,304.826721 6893.226562,337.367706 6893.226562,371.198059 
	C6775.595703,371.198059 6658.171387,371.198059 6540.246094,371.198059 
	C6540.246094,424.968597 6540.246094,477.451355 6540.246094,530.965698 
	C6644.623047,530.965698 6748.459473,530.965698 6852.994141,530.965698 
	C6852.994141,564.727417 6852.994141,597.462708 6852.994141,631.136597 
	C6748.817871,631.136597 6644.964355,631.136597 6540.406250,631.136597 
	C6540.406250,686.538025 6540.406250,741.010315 6540.406250,796.886230 
	C6569.935547,797.273193 6599.430176,797.012878 6628.917969,797.058960 
	C6658.917480,797.105896 6688.916992,797.069336 6718.916504,797.069336 
	C6748.583008,797.069336 6778.249023,797.069336 6807.915527,797.069336 
	C6837.505859,797.069336 6867.096680,797.069336 6897.185059,797.069336 
	C6897.185059,830.769775 6897.185059,863.307251 6897.185059,895.819824 
	C6890.125488,897.732910 6445.417480,898.380676 6431.009766,896.429260 
	C6431.009766,688.439758 6431.009766,480.353363 6431.009766,271.069641 
	C6440.517578,271.069641 6449.772949,271.069641 6460.022949,271.070251 
z"/>
<path fill="#0DB899" opacity="1.000000" stroke="none" 
	d="
M1451.779907,661.107849 
	C1448.311768,662.689575 1444.773315,663.886719 1441.232544,663.893555 
	C1389.001221,663.995056 1336.769653,663.938416 1283.653320,663.912964 
	C1282.218994,645.906982 1279.982788,628.171997 1273.893799,611.123169 
	C1253.122192,552.962646 1212.980469,515.296692 1153.120361,500.248260 
	C1076.901245,481.087372 999.646179,520.152527 965.497925,587.262939 
	C954.312805,609.244751 948.086426,632.343689 946.615601,657.567871 
	C946.059387,599.225281 945.422424,540.235291 946.302368,481.267975 
	C946.656860,457.513580 950.605408,433.835876 956.765442,410.734009 
	C963.550781,385.286896 972.944824,360.795349 985.322693,337.547882 
	C995.480347,318.470428 1006.909119,300.074951 1021.298096,283.901825 
	C1034.991943,268.510040 1048.930176,253.183609 1064.114624,239.309875 
	C1081.759155,223.188492 1101.780396,209.987762 1122.854736,198.558807 
	C1143.387451,187.423630 1164.841309,178.481598 1187.281494,171.986908 
	C1191.061279,170.892944 1195.062500,170.564209 1199.845581,169.794464 
	C1211.826660,172.973099 1223.176636,175.566437 1233.975342,179.625931 
	C1273.259644,194.393921 1308.501587,215.915115 1339.690918,244.093719 
	C1394.174316,293.317719 1429.324097,353.740204 1444.552490,425.536377 
	C1447.496460,439.415863 1448.432251,453.721283 1450.235107,469.173279 
	C1450.308960,471.151428 1450.655273,471.633392 1451.214600,471.962250 
	C1451.370117,475.601013 1451.658813,479.239655 1451.661011,482.878510 
	C1451.698242,541.975586 1451.699219,601.072632 1451.779907,661.107849 
z"/>
<path fill="#686868" opacity="1.000000" stroke="none" 
	d="
M2905.377930,897.377075 
	C2870.885010,897.376831 2837.319092,897.376831 2801.848389,897.376831 
	C2893.966064,686.532715 2985.449951,477.140045 3076.943115,267.725861 
	C3111.634521,267.725861 3145.559570,267.725861 3180.492920,267.725861 
	C3271.804688,476.717499 3363.198730,685.897949 3454.606201,895.108337 
	C3447.452637,897.892029 3360.706055,898.906311 3337.899170,896.643677 
	C3316.959229,846.913696 3295.834229,796.744019 3274.672363,746.486694 
	C3176.430176,746.486694 3078.860840,746.486694 2980.093994,746.486694 
	C2958.822754,796.328125 2937.338135,846.669617 2915.697266,897.377319 
	C2912.206055,897.377319 2909.255127,897.377319 2905.377930,897.377075 
M3209.693359,591.395325 
	C3182.354980,528.272766 3155.016846,465.150208 3126.840088,400.091522 
	C3108.468018,443.121277 3091.114990,484.020264 3073.551270,524.828613 
	C3056.042725,565.509766 3038.414795,606.138123 3021.092529,647.479614 
	C3092.661621,647.479614 3162.700439,647.479614 3233.753662,647.479614 
	C3225.675293,628.669983 3217.972900,610.735962 3209.693359,591.395325 
z"/>
<path fill="#686868" opacity="1.000000" stroke="none" 
	d="
M5035.103516,301.023956 
	C5040.115723,289.708374 5044.796387,279.076935 5049.681641,267.981689 
	C5083.995117,267.981689 5118.179688,267.981689 5153.396484,267.981689 
	C5244.639160,476.823029 5336.041016,686.028259 5427.445801,895.240540 
	C5421.106934,897.832336 5328.371582,898.804993 5310.578125,896.493530 
	C5289.705078,846.866333 5268.707031,796.942139 5247.540039,746.616333 
	C5149.567871,746.616333 5051.712402,746.616333 4952.906738,746.616333 
	C4944.840332,765.364075 4936.549316,784.507690 4928.361816,803.695557 
	C4916.102051,832.427795 4903.905273,861.186646 4891.709473,889.945984 
	C4889.998047,893.981567 4888.701172,897.559570 4882.813965,897.507446 
	C4848.159180,897.200684 4813.500488,897.312134 4778.843262,897.255920 
	C4778.206543,897.254944 4777.570801,896.924500 4775.596680,896.376404 
	C4776.855469,893.062866 4777.945801,889.783020 4779.322754,886.628418 
	C4801.540527,835.749390 4823.816895,784.896240 4846.033691,734.017029 
	C4877.426758,662.122192 4908.753418,590.197937 4940.161621,518.309570 
	C4968.911621,452.505096 4997.737305,386.733887 5026.517090,320.942566 
	C5029.312988,314.550446 5032.022949,308.120453 5035.103516,301.023956 
M5010.103027,609.153931 
	C5004.759766,621.802795 4999.416504,634.451660 4993.915039,647.474915 
	C5065.287598,647.474915 5135.337402,647.474915 5205.566895,647.474915 
	C5199.916016,628.630676 5103.879395,408.408234 5098.705078,402.593353 
	C5069.324219,471.097870 5040.019531,539.424988 5010.103027,609.153931 
z"/>
<path fill="#686868" opacity="1.000000" stroke="none" 
	d="
M2682.249512,611.765137 
	C2704.575195,637.191650 2715.725098,666.233948 2718.541748,699.208740 
	C2720.663330,724.046021 2718.806152,748.295227 2712.182617,772.125610 
	C2699.920410,816.242493 2673.335693,849.586853 2634.068115,872.764465 
	C2601.673828,891.885010 2566.200439,901.366089 2528.923340,903.950867 
	C2510.695557,905.214783 2492.315918,905.970764 2474.085449,905.157837 
	C2438.411621,903.566833 2403.480957,896.851074 2369.635254,885.408203 
	C2324.374268,870.105835 2283.579102,846.733093 2247.204834,815.713257 
	C2243.435791,812.499023 2239.767578,809.166931 2235.300293,805.226013 
	C2257.591064,778.695801 2279.699219,752.382568 2301.166504,726.832214 
	C2321.026855,740.795776 2339.645264,754.742004 2359.113281,767.379089 
	C2390.492676,787.748169 2424.888916,800.736145 2462.151367,805.160889 
	C2492.022705,808.708008 2521.918457,809.573120 2551.054688,800.023193 
	C2569.769775,793.888977 2586.159668,784.235352 2597.820312,767.678650 
	C2615.757080,742.210388 2615.802246,694.646545 2580.252197,672.583313 
	C2562.852783,661.784912 2544.159424,653.914490 2524.653564,648.308105 
	C2494.655029,639.685791 2464.338867,632.173401 2434.193359,624.056091 
	C2406.543213,616.610596 2379.091553,608.394226 2353.270752,595.856323 
	C2314.901123,577.225159 2284.446289,550.617798 2269.566895,509.160980 
	C2261.716064,487.287018 2259.341797,464.564789 2259.735840,441.522797 
	C2260.268555,410.368469 2267.696289,381.112579 2284.059814,354.254303 
	C2303.569824,322.232300 2330.700928,298.985809 2364.693359,283.761261 
	C2392.566895,271.277222 2421.894531,265.008789 2452.478271,263.149353 
	C2494.723389,260.580902 2536.118408,264.593933 2576.765625,276.050934 
	C2619.903076,288.209839 2658.570312,309.257721 2694.078857,336.350403 
	C2695.920410,337.755524 2697.622559,339.343292 2700.001709,341.366577 
	C2680.312012,369.137054 2660.766113,396.704742 2640.895508,424.730011 
	C2638.422363,423.250549 2636.435303,422.210541 2634.604736,420.944458 
	C2602.440186,398.699890 2568.717285,379.576416 2530.716309,369.018311 
	C2514.646729,364.553436 2498.307373,362.259338 2481.617188,361.119110 
	C2461.420410,359.739319 2441.884521,361.747589 2422.755859,368.015594 
	C2409.225586,372.449158 2397.640381,380.048065 2387.816895,390.402618 
	C2364.882812,414.576416 2362.775879,454.082123 2384.381104,478.804382 
	C2391.197754,486.604340 2400.519287,492.661743 2409.610840,497.937775 
	C2431.361084,510.560333 2455.617188,516.910278 2479.602539,523.713440 
	C2513.500977,533.328308 2547.664551,542.067078 2581.327637,552.436707 
	C2608.084229,560.678894 2633.886963,571.695435 2656.410645,588.845032 
	C2665.369873,595.666687 2673.420166,603.682007 2682.249512,611.765137 
z"/>
<path fill="#676868" opacity="1.000000" stroke="none" 
	d="
M6024.000000,371.374878 
	C5993.113770,371.374603 5963.227539,371.374603 5932.835938,371.374603 
	C5932.835938,428.735321 5932.835938,484.877441 5932.835938,542.079346 
	C6037.760254,542.079346 6142.207520,542.079346 6247.169922,542.079346 
	C6247.169922,575.644470 6247.169922,608.153748 6247.169922,641.729614 
	C6142.563477,641.729614 6038.119141,641.729614 5932.560547,641.729614 
	C5932.560547,727.240173 5932.560547,811.698486 5932.560547,896.762268 
	C5895.958496,896.762268 5860.472656,896.762268 5824.334961,896.762268 
	C5824.334961,688.650208 5824.334961,480.855072 5824.334961,273.027710 
	C5831.133789,270.963257 6274.930176,270.372101 6287.774414,272.533325 
	C6287.774414,304.967041 6287.774414,337.495575 6287.774414,371.375153 
	C6200.070801,371.375153 6112.535645,371.375153 6024.000000,371.374878 
z"/>
<path fill="#5EC6C5" opacity="1.000000" stroke="none" 
	d="
M636.035156,1299.902832 
	C618.438782,1257.624268 608.831116,1214.562378 609.793823,1169.507935 
	C618.396545,1167.089600 1246.826538,1166.467407 1271.488159,1168.824951 
	C1180.286621,1173.605469 1103.747192,1207.697754 1041.610962,1271.985596 
	C979.255798,1336.500122 948.331543,1414.728027 946.556396,1505.699341 
	C942.319824,1505.699341 939.117493,1505.860352 935.935364,1505.674805 
	C894.850769,1503.280884 854.882019,1495.757080 816.845459,1479.501831 
	C781.675232,1464.471436 749.877441,1444.309692 721.252319,1418.774536 
	C689.004272,1390.007935 663.977722,1355.984863 644.172119,1317.864502 
	C641.262512,1312.264282 638.905151,1306.377319 636.035156,1299.902832 
z"/>
<path fill="#686868" opacity="1.000000" stroke="none" 
	d="
M4772.314941,312.000519 
	C4772.314941,332.943420 4772.314941,352.886536 4772.314941,373.987732 
	C4706.202148,373.987732 4640.770508,373.987732 4574.531250,373.987732 
	C4574.531250,548.667114 4574.531250,722.184082 4574.531250,895.449463 
	C4566.813965,897.797791 4474.671387,898.251587 4462.404297,896.027893 
	C4462.404297,722.511841 4462.404297,548.776489 4462.404297,374.232452 
	C4396.039062,374.232452 4330.844238,374.232452 4264.981445,374.232452 
	C4264.981445,339.954590 4264.981445,306.482269 4264.981445,273.023834 
	C4272.064453,270.995605 4758.039551,270.353729 4772.314941,272.514374 
	C4772.314941,285.206024 4772.314941,298.103363 4772.314941,312.000519 
z"/>
<path fill="#0EB899" opacity="1.000000" stroke="none" 
	d="
M1578.157227,439.666931 
	C1554.217896,372.772583 1563.262939,311.955414 1608.794189,257.818756 
	C1636.429443,224.960342 1672.243896,205.822449 1714.745728,199.611465 
	C1767.362061,191.922409 1814.805054,204.704422 1855.138428,239.129501 
	C1892.381104,270.916687 1913.238403,311.734650 1916.476440,361.342102 
	C1919.131104,402.010742 1909.550293,439.168213 1886.583618,472.525726 
	C1857.555298,514.687439 1817.273071,540.242981 1766.606201,547.372375 
	C1709.441040,555.416138 1659.458130,538.569763 1617.670898,498.803955 
	C1600.398804,482.367432 1587.543701,462.522217 1578.157227,439.666931 
z"/>
<path fill="#696868" opacity="1.000000" stroke="none" 
	d="
M3642.206543,1104.068848 
	C3683.000000,1091.763550 3722.781006,1092.226196 3760.788574,1110.124268 
	C3811.762207,1134.127808 3840.086914,1175.124756 3846.350586,1231.270020 
	C3850.999023,1272.937622 3840.809814,1310.683472 3814.691895,1343.268311 
	C3785.885254,1379.207642 3747.812256,1398.118774 3701.560791,1400.111694 
	C3673.463623,1401.322510 3646.378174,1397.182129 3621.274170,1384.031372 
	C3575.961670,1360.294556 3549.599609,1322.724854 3541.757568,1272.326294 
	C3535.803955,1234.064209 3543.053467,1198.291992 3563.692139,1165.397949 
	C3580.327148,1138.884521 3603.711670,1120.385620 3632.228027,1108.050659 
	C3635.276855,1106.731812 3638.368896,1105.512939 3642.206543,1104.068848 
M3710.302490,1146.028442 
	C3700.115479,1144.459717 3689.958496,1143.826294 3679.654541,1145.388062 
	C3655.685791,1149.021240 3635.372070,1159.319092 3619.862549,1178.114868 
	C3601.056396,1200.905151 3593.277100,1227.102295 3595.565674,1256.666870 
	C3597.690430,1284.121216 3608.316650,1307.289795 3628.086670,1326.271606 
	C3658.078125,1355.067139 3706.978271,1360.043457 3742.857178,1339.121094 
	C3791.834473,1310.560425 3806.396484,1242.944824 3777.905518,1193.732910 
	C3763.093506,1168.149170 3740.768066,1152.610474 3710.302490,1146.028442 
z"/>
<path fill="#686969" opacity="1.000000" stroke="none" 
	d="
M3126.301270,1174.000000 
	C3126.301270,1149.417847 3126.301270,1125.835815 3126.301270,1101.667480 
	C3143.805908,1101.667480 3160.343994,1101.667480 3178.226807,1101.667480 
	C3178.226807,1141.884521 3178.226807,1181.966797 3178.226807,1222.546875 
	C3225.412598,1222.546875 3271.260498,1222.546875 3318.038574,1222.546875 
	C3318.038574,1182.207886 3318.038574,1142.329712 3318.038574,1101.764160 
	C3335.788086,1101.764160 3352.616455,1101.764160 3369.886475,1101.764160 
	C3369.886475,1199.370605 3369.886475,1296.615845 3369.886475,1393.801147 
	C3362.469238,1395.802979 3329.575684,1396.073364 3318.638672,1394.135986 
	C3318.638672,1354.070801 3318.638672,1313.852661 3318.638672,1273.857788 
	C3311.003174,1271.734863 3193.337891,1271.128662 3178.418213,1273.078125 
	C3178.418213,1313.369507 3178.418213,1353.834595 3178.418213,1394.832520 
	C3160.757812,1394.832520 3144.243408,1394.832520 3126.301270,1394.832520 
	C3126.301270,1321.360352 3126.301270,1248.180176 3126.301270,1174.000000 
z"/>
<path fill="#696969" opacity="1.000000" stroke="none" 
	d="
M5583.918945,1257.983643 
	C5603.826172,1303.704224 5623.458984,1348.714844 5643.816406,1395.387085 
	C5639.044434,1395.387085 5635.552734,1395.387085 5632.061523,1395.387085 
	C5620.070801,1395.386963 5608.065430,1395.032837 5596.095215,1395.529785 
	C5589.696777,1395.795410 5586.817383,1393.386719 5584.487305,1387.560303 
	C5576.108398,1366.606689 5567.114746,1345.898804 5558.172852,1324.669922 
	C5512.527832,1324.669922 5467.033691,1324.669922 5420.702148,1324.669922 
	C5416.097656,1335.257080 5411.302734,1346.142822 5406.624512,1357.078613 
	C5402.184570,1367.456543 5397.726562,1377.830811 5393.562012,1388.320068 
	C5391.648926,1393.138550 5389.225586,1395.712524 5383.391602,1395.538452 
	C5368.185059,1395.085083 5352.956055,1395.385986 5336.303711,1395.385986 
	C5342.877930,1380.156982 5348.840820,1366.214111 5354.906250,1352.316040 
	C5381.353516,1291.718384 5407.821289,1231.129883 5434.300293,1170.546265 
	C5443.881348,1148.625244 5453.592285,1126.760254 5463.049316,1104.786133 
	C5464.675293,1101.006958 5466.476562,1098.885010 5471.000977,1098.979858 
	C5483.652344,1099.245117 5496.321777,1099.347656 5508.965332,1098.940796 
	C5514.264160,1098.770142 5515.715332,1101.833130 5517.373047,1105.646606 
	C5529.163086,1132.772705 5541.029297,1159.865601 5552.879395,1186.965454 
	C5563.128906,1210.403931 5573.388672,1233.837891 5583.918945,1257.983643 
M5443.731934,1268.793213 
	C5442.691895,1271.660034 5441.651855,1274.526855 5440.490723,1277.727783 
	C5473.601074,1277.727783 5505.434570,1277.727783 5538.793945,1277.727783 
	C5522.264160,1239.492432 5506.105957,1202.116699 5489.155762,1162.908569 
	C5473.583984,1199.187622 5458.951172,1233.278076 5443.731934,1268.793213 
z"/>
<path fill="#696767" opacity="1.000000" stroke="none" 
	d="
M6664.000000,1222.084229 
	C6742.199219,1222.084229 6819.398438,1222.084229 6897.142578,1222.084229 
	C6897.142578,1239.575684 6897.142578,1256.083008 6897.142578,1273.343018 
	C6671.068848,1273.343018 6445.077637,1273.343018 6218.385254,1273.343018 
	C6218.385254,1256.717773 6218.385254,1239.965942 6218.385254,1222.084229 
	C6366.712402,1222.084229 6514.856445,1222.084229 6664.000000,1222.084229 
z"/>
<path fill="#686767" opacity="1.000000" stroke="none" 
	d="
M2730.000000,1274.089355 
	C2565.079102,1274.089355 2401.158447,1274.089355 2235.955322,1274.089355 
	C2235.862305,1265.141724 2235.740234,1256.646851 2235.695068,1248.151611 
	C2235.651123,1239.873047 2235.685547,1231.593872 2235.685547,1222.707520 
	C2462.531738,1222.707520 2688.637939,1222.707520 2916.167480,1222.707520 
	C2916.216064,1231.074585 2916.284180,1239.568237 2916.309326,1248.061890 
	C2916.333740,1256.334961 2916.314453,1264.607910 2916.314453,1274.089355 
	C2854.052734,1274.089355 2792.526367,1274.089355 2730.000000,1274.089355 
z"/>
<path fill="#686969" opacity="1.000000" stroke="none" 
	d="
M4391.675781,1338.000000 
	C4391.675781,1258.733887 4391.675781,1180.467651 4391.675781,1101.065186 
	C4395.717285,1101.065186 4398.966797,1101.065186 4402.216797,1101.065186 
	C4438.539062,1101.065186 4474.863281,1100.881836 4511.183594,1101.136841 
	C4531.705078,1101.281006 4551.673828,1104.964233 4569.861816,1114.881470 
	C4599.537598,1131.062500 4616.056152,1155.904419 4618.433105,1190.049316 
	C4619.576172,1206.466064 4618.635742,1222.516602 4612.571777,1237.842651 
	C4600.177246,1269.170654 4575.622559,1286.543335 4544.313477,1295.522949 
	C4529.232910,1299.848022 4513.699707,1301.468506 4497.992676,1301.404297 
	C4480.371582,1301.332397 4462.750000,1301.387695 4443.861328,1301.387695 
	C4443.861328,1332.775513 4443.861328,1363.538208 4443.861328,1394.829346 
	C4426.089355,1394.829346 4409.586914,1394.829346 4391.676270,1394.829346 
	C4391.676270,1376.039062 4391.676270,1357.519531 4391.675781,1338.000000 
M4534.436035,1247.770386 
	C4565.503418,1233.078003 4576.037109,1196.411987 4556.327637,1170.242798 
	C4545.050781,1155.270630 4528.803711,1149.810547 4510.763184,1149.464111 
	C4491.106934,1149.086670 4471.438477,1149.348755 4451.775391,1149.416382 
	C4449.261719,1149.425049 4446.750000,1149.941162 4444.332520,1150.211670 
	C4444.332520,1184.794556 4444.332520,1218.614746 4444.332520,1253.372314 
	C4448.227051,1253.372314 4451.489746,1253.372314 4454.752441,1253.372314 
	C4471.749512,1253.372314 4488.771973,1253.932739 4505.732910,1253.147095 
	C4514.872559,1252.723755 4523.905273,1249.994751 4534.436035,1247.770386 
z"/>
<path fill="#696969" opacity="1.000000" stroke="none" 
	d="
M4206.410156,1261.654907 
	C4233.173828,1292.500488 4226.582031,1347.585571 4198.168457,1373.056396 
	C4182.502441,1387.099609 4164.003906,1394.927734 4143.504883,1397.684448 
	C4099.425293,1403.611816 4058.063477,1395.508545 4020.299072,1371.538940 
	C4011.681885,1366.069702 4003.826416,1359.401001 3994.769287,1352.650269 
	C4005.649414,1339.701904 4015.851074,1327.560913 4026.664062,1314.692749 
	C4030.455322,1317.456909 4033.913330,1319.838501 4037.221436,1322.413086 
	C4055.607666,1336.723877 4075.551514,1347.712769 4098.956543,1351.193481 
	C4115.224121,1353.612549 4131.521484,1354.410889 4147.109375,1347.956421 
	C4159.328613,1342.896729 4168.606934,1335.109741 4170.476562,1320.672974 
	C4172.188965,1307.450073 4168.178223,1296.714233 4156.784668,1290.205200 
	C4147.652344,1284.988159 4137.658691,1280.914917 4127.600586,1277.757080 
	C4105.749023,1270.895996 4083.474365,1265.377319 4061.644531,1258.452881 
	C4049.261719,1254.525024 4038.072266,1247.966919 4028.430420,1238.833374 
	C4018.150146,1229.094971 4011.478271,1217.511719 4008.877197,1203.723877 
	C4006.279297,1189.954224 4005.735107,1176.064453 4009.274414,1162.338867 
	C4017.430176,1130.711548 4038.403564,1110.799927 4068.995361,1102.471680 
	C4114.623047,1090.049927 4157.975586,1097.448364 4198.139160,1122.563721 
	C4203.448242,1125.883667 4208.427246,1129.732056 4214.425781,1133.944580 
	C4204.887695,1147.502319 4195.785645,1160.440186 4186.295898,1173.929810 
	C4178.383789,1169.056763 4170.958496,1164.132324 4163.211914,1159.780029 
	C4143.072754,1148.465698 4121.601074,1142.057251 4098.279785,1144.183960 
	C4083.818359,1145.502808 4071.047607,1150.555420 4063.134521,1163.828735 
	C4055.447754,1176.722534 4058.992432,1194.065918 4070.983887,1203.148926 
	C4083.544434,1212.663086 4098.612793,1215.896118 4113.269043,1220.197510 
	C4131.125977,1225.438477 4149.105957,1230.317139 4166.759277,1236.176880 
	C4181.766602,1241.158203 4195.094238,1249.325195 4206.410156,1261.654907 
z"/>
<path fill="#676767" opacity="1.000000" stroke="none" 
	d="
M5091.686523,1164.216187 
	C5091.686035,1159.300903 5091.686035,1155.356201 5091.686035,1150.253662 
	C5060.838379,1150.253662 5030.734863,1150.253662 5000.171875,1150.253662 
	C5000.171875,1133.585449 5000.171875,1118.099609 5000.171875,1101.990967 
	C5079.104492,1101.990967 5157.592773,1101.990967 5237.352539,1101.990967 
	C5237.464844,1109.834229 5237.619629,1117.669189 5237.677246,1125.505005 
	C5237.733398,1133.143311 5237.689941,1140.782593 5237.689941,1149.831421 
	C5227.154785,1150.371582 5216.966797,1150.007568 5206.808105,1150.075073 
	C5196.810547,1150.141602 5186.812500,1150.089600 5176.814453,1150.089600 
	C5166.500488,1150.089600 5156.186523,1150.089600 5144.577637,1150.089600 
	C5144.051270,1164.026733 5144.387695,1177.560791 5144.326660,1191.076050 
	C5144.267090,1204.406250 5144.313477,1217.736938 5144.313477,1231.067383 
	C5144.313477,1244.731079 5144.313477,1258.394897 5144.313477,1272.058594 
	C5144.313477,1285.722290 5144.313477,1299.385986 5144.313477,1313.049683 
	C5144.313477,1326.380127 5144.313477,1339.710571 5144.313477,1353.041016 
	C5144.313477,1366.675903 5144.313477,1380.310791 5144.313477,1394.654297 
	C5126.842773,1394.654297 5110.037109,1394.654297 5093.290039,1394.654297 
	C5092.949707,1394.415894 5092.612305,1394.273438 5092.422363,1394.020508 
	C5092.232422,1393.767334 5092.095703,1393.403564 5092.094727,1393.088013 
	C5091.949219,1317.120972 5091.818359,1241.153809 5091.686523,1164.216187 
z"/>
<path fill="#696969" opacity="1.000000" stroke="none" 
	d="
M5808.598145,1395.393799 
	C5805.443848,1395.108643 5803.217773,1394.824341 5800.678223,1394.500000 
	C5800.678223,1296.798706 5800.678223,1199.610718 5800.678223,1101.739014 
	C5817.835938,1101.739014 5834.655762,1101.739014 5852.260742,1101.739014 
	C5852.260742,1183.643921 5852.260742,1265.162354 5852.260742,1347.853394 
	C5903.768555,1347.853394 5954.512695,1347.853394 6005.752930,1347.853394 
	C6005.752930,1364.138672 6005.752930,1379.245728 6005.752930,1395.394531 
	C5939.964355,1395.394531 5874.745117,1395.394531 5808.598145,1395.393799 
z"/>
<path fill="#676767" opacity="1.000000" stroke="none" 
	d="
M4781.686035,1320.000000 
	C4781.686035,1246.778198 4781.686035,1174.556396 4781.686035,1101.918945 
	C4799.657715,1101.918945 4816.458008,1101.918945 4833.785156,1101.918945 
	C4833.785156,1199.662964 4833.785156,1296.857910 4833.785156,1394.713745 
	C4816.764160,1394.713745 4799.938477,1394.713745 4781.686035,1394.713745 
	C4781.686035,1370.035522 4781.686035,1345.517700 4781.686035,1320.000000 
z"/>
<path fill="#2EBDA8" opacity="1.000000" stroke="none" 
	d="
M1451.323242,471.491302 
	C1450.655273,471.633392 1450.308960,471.151428 1450.183838,470.059631 
	C1450.828125,469.880341 1451.241577,470.352814 1451.323242,471.491302 
z"/>
<path fill="#FEFEFE" opacity="1.000000" stroke="none" 
	d="
M3209.981934,592.098633 
	C3217.972900,610.735962 3225.675293,628.669983 3233.753662,647.479614 
	C3162.700439,647.479614 3092.661621,647.479614 3021.092529,647.479614 
	C3038.414795,606.138123 3056.042725,565.509766 3073.551270,524.828613 
	C3091.114990,484.020264 3108.468018,443.121277 3126.840088,400.091522 
	C3155.016846,465.150208 3182.354980,528.272766 3209.981934,592.098633 
z"/>
<path fill="#FEFEFE" opacity="1.000000" stroke="none" 
	d="
M5010.408691,608.453003 
	C5040.019531,539.424988 5069.324219,471.097870 5098.705078,402.593353 
	C5103.879395,408.408234 5199.916016,628.630676 5205.566895,647.474915 
	C5135.337402,647.474915 5065.287598,647.474915 4993.915039,647.474915 
	C4999.416504,634.451660 5004.759766,621.802795 5010.408691,608.453003 
z"/>
<path fill="#FEFEFE" opacity="1.000000" stroke="none" 
	d="
M3711.162598,1146.081787 
	C3740.768066,1152.610474 3763.093506,1168.149170 3777.905518,1193.732910 
	C3806.396484,1242.944824 3791.834473,1310.560425 3742.857178,1339.121094 
	C3706.978271,1360.043457 3658.078125,1355.067139 3628.086670,1326.271606 
	C3608.316650,1307.289795 3597.690430,1284.121216 3595.565674,1256.666870 
	C3593.277100,1227.102295 3601.056396,1200.905151 3619.862549,1178.114868 
	C3635.372070,1159.319092 3655.685791,1149.021240 3679.654541,1145.388062 
	C3689.958496,1143.826294 3700.115479,1144.459717 3711.162598,1146.081787 
z"/>
<path fill="#FDFEFE" opacity="1.000000" stroke="none" 
	d="
M5444.025391,1268.080933 
	C5458.951172,1233.278076 5473.583984,1199.187622 5489.155762,1162.908569 
	C5506.105957,1202.116699 5522.264160,1239.492432 5538.793945,1277.727783 
	C5505.434570,1277.727783 5473.601074,1277.727783 5440.490723,1277.727783 
	C5441.651855,1274.526855 5442.691895,1271.660034 5444.025391,1268.080933 
z"/>
<path fill="#FEFDFD" opacity="1.000000" stroke="none" 
	d="
M4533.710938,1248.038208 
	C4523.905273,1249.994751 4514.872559,1252.723755 4505.732910,1253.147095 
	C4488.771973,1253.932739 4471.749512,1253.372314 4454.752441,1253.372314 
	C4451.489746,1253.372314 4448.227051,1253.372314 4444.332520,1253.372314 
	C4444.332520,1218.614746 4444.332520,1184.794556 4444.332520,1150.211670 
	C4446.750000,1149.941162 4449.261719,1149.425049 4451.775391,1149.416382 
	C4471.438477,1149.348755 4491.106934,1149.086670 4510.763184,1149.464111 
	C4528.803711,1149.810547 4545.050781,1155.270630 4556.327637,1170.242798 
	C4576.037109,1196.411987 4565.503418,1233.078003 4533.710938,1248.038208 
z"/>
</svg>