<svg width="245" height="84" viewBox="0 0 245 84" fill="none" xmlns="http://www.w3.org/2000/svg">
<g clip-path="url(#clip0_1031_203)">
<path d="M118.741 34.8618H113.918V27.1642H105.628V34.8618H100.777V15.3986H105.628V22.9787H113.918V15.3986H118.741V34.8618Z" fill="white"/>
<path d="M142.498 25.1613C142.498 30.8248 137.881 35.3004 132.003 35.3004C126.125 35.3004 121.508 30.8283 121.508 25.1613C121.508 19.4943 126.125 14.9634 132.003 14.9634C137.881 14.9634 142.498 19.4666 142.498 25.1613ZM137.647 25.1613C137.647 21.8219 135.208 19.3527 132.003 19.3527C128.798 19.3527 126.359 21.8219 126.359 25.1613C126.359 28.5007 128.798 30.9146 132.003 30.9146C135.208 30.9146 137.647 28.4731 137.647 25.1613Z" fill="white"/>
<path d="M161.113 20.5994L156.35 21.5594C155.997 19.7291 154.469 18.8278 152.911 18.8278C151.352 18.8278 150.265 19.698 150.265 20.8031C150.265 21.587 150.618 22.1672 151.852 22.4296L155.937 23.331C159.348 24.0873 161.347 25.9176 161.347 28.9945C161.347 33.1489 157.615 35.2969 153.232 35.2969C148.85 35.2969 145.148 33.2042 144.617 29.3986L149.615 28.4385C150.115 30.4415 151.527 31.3152 153.494 31.3152C155.319 31.3152 156.406 30.5002 156.406 29.3122C156.406 28.442 155.993 27.8894 154.581 27.5994L150.464 26.7291C147.644 26.0902 145.173 24.6364 145.173 21.0932C145.173 17.3152 148.35 14.9634 152.963 14.9634C157.255 14.9634 160.372 17.0562 161.106 20.5994H161.113Z" fill="white"/>
<path d="M173.928 15.3986C178.367 15.3986 181.159 18.0991 181.159 22.1085C181.159 26.1179 178.28 28.9047 173.722 28.9047H169.077V34.8584H164.227V15.3951H173.928V15.3986ZM173.373 24.8988C175.253 24.8988 176.399 23.8248 176.399 22.1672C176.399 20.5994 175.253 19.4943 173.373 19.4943H169.081V24.8988H173.373Z" fill="white"/>
<path d="M183.746 34.8618V15.3986H188.597V34.8618H183.746Z" fill="white"/>
<path d="M202.092 19.5806V34.8618H197.273V19.5806H190.895V15.3986H208.474V19.5806H202.096H202.092Z" fill="white"/>
<path d="M223.263 34.8618L221.882 31.3186H213.592L212.212 34.8618H207.008L215.238 15.3986H220.208L228.439 34.8618H223.263ZM217.737 20.8031L215.238 27.1953H220.264L217.737 20.8031Z" fill="white"/>
<path d="M244.697 34.8618H230.145V15.3986H234.995V30.6798H244.697V34.8618Z" fill="white"/>
<path d="M116.656 45.6744L111.893 46.6344C111.54 44.8041 110.012 43.9028 108.454 43.9028C106.895 43.9028 105.808 44.773 105.808 45.8781C105.808 46.662 106.161 47.2422 107.395 47.5047L111.48 48.406C114.891 49.1623 116.89 50.9926 116.89 54.0695C116.89 58.2239 113.158 60.372 108.775 60.372C104.392 60.372 100.691 58.2792 100.16 54.4736L105.158 53.5135C105.658 55.5165 107.07 56.3902 109.037 56.3902C110.862 56.3902 111.948 55.5752 111.948 54.3872C111.948 53.517 111.536 52.9644 110.124 52.6744L106.007 51.8041C103.187 51.1652 100.716 49.7114 100.716 46.1682C100.716 42.3902 103.893 40.0385 108.506 40.0385C112.798 40.0385 115.915 42.1312 116.649 45.6744H116.656Z" fill="white"/>
<path d="M134.618 59.9402L133.238 56.3971H124.948L123.567 59.9402H118.363L126.594 40.477H131.564L139.794 59.9402H134.618ZM129.093 45.8781L126.594 52.2703H131.619L129.093 45.8781Z" fill="white"/>
<path d="M160.758 59.9402H156.76L146.792 48.6684V59.9402H141.941V40.477H145.968L155.935 52.0976V40.477H160.758V59.9402Z" fill="white"/>
<path d="M174.721 44.659V59.9402H169.902V44.659H163.523V40.477H181.103V44.659H174.725H174.721Z" fill="white"/>
<path d="M196.333 59.9402L194.952 56.3971H186.663L185.282 59.9402H180.078L188.309 40.477H193.278L201.509 59.9402H196.333ZM190.804 45.8781L188.305 52.2703H193.331L190.804 45.8781Z" fill="white"/>
<path d="M215.765 48.7824H224.995V52.9644H215.765V59.9368H210.914V40.4735H226.141V44.6867H215.761V48.7824H215.765Z" fill="white"/>
<path d="M244.284 59.9402H228.938V40.477H244.196V44.6003H233.788V48.2609H243.344V52.1529H233.788V55.8134H244.284V59.9368V59.9402Z" fill="white"/>
<path d="M101.063 71.5056H99.3047V70.587H104.005V71.5056H102.247V76.8342H101.063V71.5056Z" fill="white"/>
<path d="M103.895 74.5964V74.5274C103.895 73.1115 104.912 72.1687 106.271 72.1687C107.631 72.1687 108.641 73.1046 108.641 74.4997V74.5688C108.641 75.9916 107.624 76.9171 106.264 76.9171C104.905 76.9171 103.895 75.9812 103.895 74.593V74.5964ZM107.543 74.5792V74.517C107.543 73.5742 107.068 72.9975 106.271 72.9975C105.474 72.9975 104.988 73.5639 104.988 74.5066V74.5757C104.988 75.5116 105.457 76.0952 106.271 76.0952C107.085 76.0952 107.543 75.5116 107.543 74.5757V74.5792Z" fill="white"/>
<path d="M109.3 74.6241V74.555C109.3 73.0977 110.174 72.1722 111.376 72.1722C112.128 72.1722 112.596 72.5141 112.851 72.9664V70.1554H113.921V76.8377H112.851V76.0676C112.603 76.52 112.012 76.924 111.331 76.924C110.174 76.924 109.297 76.1125 109.297 74.6275L109.3 74.6241ZM112.89 74.5723V74.5032C112.89 73.4983 112.421 73.001 111.645 73.001C110.87 73.001 110.398 73.5432 110.398 74.5308V74.5999C110.398 75.6048 110.912 76.0849 111.6 76.0849C112.341 76.0849 112.89 75.5945 112.89 74.5723Z" fill="white"/>
<path d="M114.859 75.5668C114.859 74.4997 115.904 74.1164 117.229 74.1164H117.802V73.8816C117.802 73.2703 117.588 72.963 116.963 72.963C116.407 72.963 116.131 73.2254 116.079 73.6778H115.044C115.132 72.6107 115.991 72.1687 117.022 72.1687C118.053 72.1687 118.871 72.5866 118.871 73.8367V76.8308H117.819V76.2713C117.519 76.665 117.113 76.9171 116.404 76.9171C115.554 76.9171 114.855 76.5165 114.855 75.5634L114.859 75.5668ZM117.802 75.2353V74.7829H117.253C116.439 74.7829 115.918 74.9659 115.918 75.5254C115.918 75.9087 116.131 76.1608 116.659 76.1608C117.312 76.1608 117.798 75.8189 117.798 75.2353H117.802Z" fill="white"/>
<path d="M122.16 75.1905V72.2654H123.23V75.0696C123.23 75.7603 123.523 76.0745 124.142 76.0745C124.715 76.0745 125.222 75.7085 125.222 74.9833V72.2689H126.291V76.8377H125.222V76.1229C124.991 76.5684 124.505 76.9275 123.754 76.9275C122.842 76.9275 122.164 76.413 122.164 75.1974L122.16 75.1905Z" fill="white"/>
<path d="M127.555 72.2654H128.624V72.9906C128.844 72.5451 129.358 72.1687 130.116 72.1687C131.043 72.1687 131.7 72.7005 131.7 73.9576V76.8308H130.63V74.0542C130.63 73.3636 130.347 73.0493 129.711 73.0493C129.11 73.0493 128.624 73.4154 128.624 74.1406V76.8308H127.555V72.2619V72.2654Z" fill="white"/>
<path d="M132.589 75.5668C132.589 74.4997 133.634 74.1164 134.959 74.1164H135.532V73.8816C135.532 73.2703 135.319 72.963 134.693 72.963C134.138 72.963 133.862 73.2254 133.809 73.6778H132.775C132.862 72.6107 133.722 72.1687 134.753 72.1687C135.784 72.1687 136.602 72.5866 136.602 73.8367V76.8308H135.55V76.2713C135.249 76.665 134.844 76.9171 134.134 76.9171C133.285 76.9171 132.586 76.5165 132.586 75.5634L132.589 75.5668ZM135.532 75.2353V74.7829H134.983C134.169 74.7829 133.648 74.9659 133.648 75.5254C133.648 75.9087 133.862 76.1608 134.389 76.1608C135.043 76.1608 135.529 75.8189 135.529 75.2353H135.532Z" fill="white"/>
<path d="M139.457 72.2654H140.606L141.816 75.7499L143.007 72.2654H144.059L142.389 76.8343H141.141L139.453 72.2654H139.457Z" fill="white"/>
<path d="M144.77 70.9117C144.77 70.5629 145.053 70.3004 145.406 70.3004C145.759 70.3004 146.042 70.5629 146.042 70.9117C146.042 71.2605 145.759 71.5126 145.406 71.5126C145.053 71.5126 144.77 71.2501 144.77 70.9117ZM144.885 72.2654H145.954V76.8342H144.885V72.2654Z" fill="white"/>
<path d="M146.953 74.6241V74.555C146.953 73.0977 147.826 72.1722 149.029 72.1722C149.78 72.1722 150.248 72.5141 150.504 72.9664V70.1554H151.573V76.8377H150.504V76.0676C150.255 76.52 149.665 76.924 148.983 76.924C147.826 76.924 146.949 76.1125 146.949 74.6275L146.953 74.6241ZM150.542 74.5723V74.5032C150.542 73.4983 150.074 73.001 149.298 73.001C148.522 73.001 148.05 73.5432 148.05 74.5308V74.5999C148.05 75.6048 148.564 76.0849 149.252 76.0849C149.993 76.0849 150.542 75.5945 150.542 74.5723Z" fill="white"/>
<path d="M152.515 75.5668C152.515 74.4997 153.56 74.1164 154.885 74.1164H155.458V73.8816C155.458 73.2703 155.245 72.963 154.619 72.963C154.063 72.963 153.787 73.2254 153.735 73.6778H152.7C152.788 72.6107 153.648 72.1687 154.679 72.1687C155.71 72.1687 156.527 72.5866 156.527 73.8367V76.8308H155.475V76.2713C155.175 76.665 154.769 76.9171 154.06 76.9171C153.211 76.9171 152.512 76.5165 152.512 75.5634L152.515 75.5668ZM155.458 75.2353V74.7829H154.909C154.095 74.7829 153.574 74.9659 153.574 75.5254C153.574 75.9087 153.787 76.1608 154.315 76.1608C154.969 76.1608 155.454 75.8189 155.454 75.2353H155.458Z" fill="white"/>
<path d="M159.523 75.5668C159.523 74.4997 160.568 74.1164 161.893 74.1164H162.466V73.8816C162.466 73.2703 162.253 72.963 161.627 72.963C161.071 72.963 160.795 73.2254 160.743 73.6778H159.708C159.796 72.6107 160.655 72.1687 161.686 72.1687C162.717 72.1687 163.535 72.5866 163.535 73.8367V76.8308H162.483V76.2713C162.183 76.665 161.777 76.9171 161.068 76.9171C160.219 76.9171 159.52 76.5165 159.52 75.5634L159.523 75.5668ZM162.466 75.2353V74.7829H161.917C161.103 74.7829 160.582 74.9659 160.582 75.5254C160.582 75.9087 160.795 76.1608 161.323 76.1608C161.976 76.1608 162.462 75.8189 162.462 75.2353H162.466Z" fill="white"/>
<path d="M164.789 70.1519H165.859V76.8342H164.789V70.1519Z" fill="white"/>
<path d="M168.953 74.6068V74.5377C168.953 73.0873 169.998 72.1721 171.288 72.1721C172.312 72.1721 173.276 72.6245 173.399 73.885H172.364C172.277 73.2738 171.868 73.0217 171.302 73.0217C170.568 73.0217 170.047 73.5811 170.047 74.5239V74.593C170.047 75.5875 170.54 76.1125 171.33 76.1125C171.896 76.1125 172.382 75.7809 172.445 75.1351H173.427C173.346 76.185 172.542 76.9274 171.288 76.9274C169.963 76.9274 168.953 76.071 168.953 74.6137V74.6068Z" fill="white"/>
<path d="M174.301 75.1905V72.2654H175.37V75.0696C175.37 75.7603 175.664 76.0745 176.282 76.0745C176.856 76.0745 177.362 75.7085 177.362 74.9833V72.2689H178.432V76.8377H177.362V76.1229C177.132 76.5684 176.646 76.9275 175.894 76.9275C174.986 76.9275 174.304 76.413 174.304 75.1974L174.301 75.1905Z" fill="white"/>
<path d="M179.605 70.9117C179.605 70.5629 179.889 70.3004 180.242 70.3004C180.595 70.3004 180.878 70.5629 180.878 70.9117C180.878 71.2605 180.595 71.5126 180.242 71.5126C179.889 71.5126 179.605 71.2501 179.605 70.9117ZM179.721 72.2654H180.79V76.8342H179.721V72.2654Z" fill="white"/>
<path d="M181.789 74.6241V74.555C181.789 73.0977 182.662 72.1722 183.865 72.1722C184.616 72.1722 185.084 72.5141 185.339 72.9664V70.1554H186.409V76.8377H185.339V76.0676C185.091 76.52 184.501 76.924 183.819 76.924C182.662 76.924 181.785 76.1125 181.785 74.6275L181.789 74.6241ZM185.374 74.5723V74.5032C185.374 73.4983 184.906 73.001 184.13 73.001C183.354 73.001 182.883 73.5432 182.883 74.5308V74.5999C182.883 75.6048 183.396 76.0849 184.085 76.0849C184.826 76.0849 185.374 75.5945 185.374 74.5723Z" fill="white"/>
<path d="M187.343 75.5668C187.343 74.4997 188.388 74.1164 189.713 74.1164H190.286V73.8816C190.286 73.2703 190.073 72.963 189.447 72.963C188.892 72.963 188.615 73.2254 188.563 73.6778H187.529C187.616 72.6107 188.476 72.1687 189.507 72.1687C190.538 72.1687 191.356 72.5866 191.356 73.8367V76.8308H190.304V76.2713C190.003 76.665 189.598 76.9171 188.888 76.9171C188.039 76.9171 187.34 76.5165 187.34 75.5634L187.343 75.5668ZM190.29 75.2353V74.7829H189.741C188.927 74.7829 188.406 74.9659 188.406 75.5254C188.406 75.9087 188.619 76.1608 189.147 76.1608C189.8 76.1608 190.286 75.8189 190.286 75.2353H190.29Z" fill="white"/>
<path d="M192.285 74.6241V74.555C192.285 73.0977 193.158 72.1722 194.361 72.1722C195.112 72.1722 195.58 72.5141 195.836 72.9664V70.1554H196.905V76.8377H195.836V76.0676C195.587 76.52 194.997 76.924 194.315 76.924C193.158 76.924 192.281 76.1125 192.281 74.6275L192.285 74.6241ZM195.874 74.5723V74.5032C195.874 73.4983 195.406 73.001 194.63 73.001C193.854 73.001 193.382 73.5432 193.382 74.5308V74.5999C193.382 75.6048 193.896 76.0849 194.584 76.0849C195.325 76.0849 195.874 75.5945 195.874 74.5723Z" fill="white"/>
<path d="M197.875 74.5964V74.5274C197.875 73.1115 198.892 72.1687 200.252 72.1687C201.611 72.1687 202.621 73.1046 202.621 74.4997V74.5688C202.621 75.9916 201.604 76.9171 200.245 76.9171C198.885 76.9171 197.875 75.9812 197.875 74.593V74.5964ZM201.524 74.5792V74.517C201.524 73.5742 201.048 72.9975 200.252 72.9975C199.455 72.9975 198.969 73.5639 198.969 74.5066V74.5757C198.969 75.5116 199.437 76.0952 200.252 76.0952C201.066 76.0952 201.524 75.5116 201.524 74.5757V74.5792Z" fill="white"/>
<path d="M205.386 74.6241V74.555C205.386 73.0977 206.26 72.1722 207.462 72.1722C208.214 72.1722 208.682 72.5141 208.937 72.9664V70.1554H210.007V76.8377H208.937V76.0676C208.689 76.52 208.098 76.924 207.417 76.924C206.26 76.924 205.383 76.1125 205.383 74.6275L205.386 74.6241ZM208.976 74.5723V74.5032C208.976 73.4983 208.507 73.001 207.731 73.001C206.956 73.001 206.484 73.5432 206.484 74.5308V74.5999C206.484 75.6048 206.997 76.0849 207.686 76.0849C208.427 76.0849 208.976 75.5945 208.976 74.5723Z" fill="white"/>
<path d="M210.969 74.5964V74.5274C210.969 73.1115 211.951 72.1687 213.268 72.1687C214.418 72.1687 215.453 72.8421 215.453 74.4756V74.7829H212.066C212.101 75.6463 212.541 76.1366 213.338 76.1366C213.985 76.1366 214.32 75.8845 214.401 75.4391H215.435C215.285 76.3991 214.499 76.924 213.314 76.924C211.954 76.924 210.972 76.0399 210.972 74.5999L210.969 74.5964ZM214.39 74.075C214.338 73.2876 213.932 72.9388 213.268 72.9388C212.604 72.9388 212.188 73.367 212.084 74.075H214.39Z" fill="white"/>
<path d="M218.535 70.1519H219.605V76.8342H218.535V70.1519Z" fill="white"/>
<path d="M220.57 75.5668C220.57 74.4997 221.615 74.1164 222.939 74.1164H223.513V73.8816C223.513 73.2703 223.299 72.963 222.674 72.963C222.118 72.963 221.842 73.2254 221.79 73.6778H220.755C220.843 72.6107 221.702 72.1687 222.733 72.1687C223.764 72.1687 224.582 72.5866 224.582 73.8367V76.8308H223.53V76.2713C223.23 76.665 222.824 76.9171 222.115 76.9171C221.265 76.9171 220.566 76.5165 220.566 75.5634L220.57 75.5668ZM223.513 75.2353V74.7829H222.964C222.15 74.7829 221.629 74.9659 221.629 75.5254C221.629 75.9087 221.842 76.1608 222.37 76.1608C223.023 76.1608 223.509 75.8189 223.509 75.2353H223.513Z" fill="white"/>
<path d="M228.091 75.56V73.0632H227.473V72.2689H228.091V71.2639H229.161V72.2689H230.178V73.0632H229.161V75.4667C229.161 75.8673 229.356 76.0503 229.692 76.0503C229.905 76.0503 230.062 76.0227 230.213 75.964V76.8032C230.045 76.8653 229.814 76.9171 229.489 76.9171C228.57 76.9171 228.091 76.4267 228.091 75.5634V75.56Z" fill="white"/>
<path d="M231.133 75.1905V72.2654H232.202V75.0696C232.202 75.7603 232.496 76.0745 233.114 76.0745C233.688 76.0745 234.194 75.7085 234.194 74.9833V72.2689H235.264V76.8377H234.194V76.1229C233.964 76.5684 233.478 76.9275 232.726 76.9275C231.814 76.9275 231.136 76.413 231.136 75.1974L231.133 75.1905Z" fill="white"/>
<path d="M237.878 76.3715L236.047 72.2654H237.204L238.43 75.2077L239.563 72.2654H240.604L238.084 78.3952H237.032L237.871 76.3681L237.878 76.3715Z" fill="white"/>
<path d="M240.988 75.5668C240.988 74.4997 242.033 74.1164 243.357 74.1164H243.931V73.8816C243.931 73.2703 243.717 72.963 243.092 72.963C242.536 72.963 242.26 73.2254 242.208 73.6778H241.173C241.26 72.6107 242.12 72.1687 243.151 72.1687C244.182 72.1687 245 72.5866 245 73.8367V76.8308H243.948V76.2713C243.647 76.665 243.242 76.9171 242.533 76.9171C241.683 76.9171 240.984 76.5165 240.984 75.5634L240.988 75.5668ZM243.931 75.2353V74.7829H243.382C242.568 74.7829 242.047 74.9659 242.047 75.5254C242.047 75.9087 242.26 76.1608 242.788 76.1608C243.441 76.1608 243.927 75.8189 243.927 75.2353H243.931Z" fill="white"/>
<path d="M20.0339 51.6868H14.7565V43.2605H5.68377V51.6868H0.375V30.3829H5.68377V38.6813H14.7565V30.3829H20.0339V51.6868Z" fill="white"/>
<path d="M41.1758 36.074L35.9614 37.1239C35.5734 35.1209 33.9029 34.1332 32.1974 34.1332C30.4919 34.1332 29.3001 35.0864 29.3001 36.2951C29.3001 37.1549 29.688 37.7904 31.0371 38.077L35.5105 39.0647C39.2431 39.89 41.4309 41.893 41.4309 45.2635C41.4309 49.8116 37.3454 52.1633 32.5504 52.1633C27.7553 52.1633 23.7012 49.8737 23.1211 45.709L28.5906 44.6591C29.1393 46.852 30.6841 47.8086 32.8369 47.8086C34.8325 47.8086 36.0243 46.9177 36.0243 45.6157C36.0243 44.6626 35.5734 44.0583 34.0287 43.7405L29.5238 42.7874C26.4343 42.0864 23.7327 40.4978 23.7327 36.6197C23.7327 32.486 27.2066 29.9098 32.2603 29.9098C36.9574 29.9098 40.3685 32.1994 41.1723 36.0775L41.1758 36.074Z" fill="white"/>
<path d="M49.8986 39.4756H60.0024V44.0548H49.8986V51.6868H44.5898V30.3829H61.2571V34.9931H49.8986V39.4756Z" fill="white"/>
<path d="M39.3037 0C27.6517 0 17.0831 4.65861 9.39781 12.187H18.5719C24.4713 8.1707 31.6114 5.81204 39.3002 5.81204C59.4973 5.81204 75.9269 22.0464 75.9269 42.0035C75.9269 61.9605 59.4973 78.1949 39.3002 78.1949C24.9047 78.1949 12.4279 69.9447 6.44461 57.9788H0C6.37471 73.2358 21.588 84.0035 39.3037 84.0035C62.7406 84.0035 81.8088 65.1618 81.8088 42.0035C81.8088 18.8451 62.7406 0 39.3037 0Z" fill="white"/>
<path d="M18.1954 15.0844H17.1504C16.703 14.5422 16.0041 14.1934 15.2142 14.1934C13.8757 14.1934 12.7783 15.2053 12.7783 16.445V18.1096V19.56C12.7783 19.56 12.4532 17.8264 10.4367 17.3809C9.95089 17.3084 8.843 17.2704 8.30129 17.2704H1.40234C1.40234 17.2704 1.5666 22.6784 5.58225 22.7164H7.49397C7.61629 22.7164 7.72463 22.7923 7.75958 22.9097C7.8155 23.0893 7.68269 23.2689 7.49397 23.2689H5.63468C5.70108 23.9803 5.97019 25.2442 7.02915 26.2837L3.8348 25.4204V27.9586L8.9793 27.9482H10.1361C14.2426 27.9482 17.5733 24.6882 17.6292 20.6443C17.6432 20.4648 17.6502 20.2817 17.6502 20.0952V19.7983V19.8052V16.445C17.6502 16.376 17.6502 16.2965 17.6502 16.2275C17.6502 15.8856 17.8249 15.5575 18.0346 15.2916L18.1954 15.0844ZM16.3046 16.1239C16.1334 16.1239 15.9971 15.9892 15.9971 15.82C15.9971 15.6507 16.1334 15.5161 16.3046 15.5161C16.4759 15.5161 16.6122 15.6507 16.6122 15.82C16.6122 15.9892 16.4759 16.1239 16.3046 16.1239Z" fill="white"/>
</g>
<defs>
<clipPath id="clip0_1031_203">
<rect width="245" height="84" fill="white"/>
</clipPath>
</defs>
</svg>
